<mxfile host="app.diagrams.net" agent="Mozilla/5.0 (Windows NT 10.0; Win64; x64) AppleWebKit/537.36 (KHTML, like Gecko) Chrome/135.0.0.0 Safari/537.36 Edg/135.0.0.0" version="26.2.4">
  <diagram id="zyraeVjW2Bd-Q2xlx6y6" name="Page-1">
    <mxGraphModel dx="1036" dy="570" grid="1" gridSize="10" guides="1" tooltips="1" connect="1" arrows="1" fold="1" page="1" pageScale="1" pageWidth="850" pageHeight="1100" math="0" shadow="0">
      <root>
        <mxCell id="0" />
        <mxCell id="1" parent="0" />
        <mxCell id="Yns52e4Zez9bQJnsiGdB-12" style="edgeStyle=orthogonalEdgeStyle;rounded=0;orthogonalLoop=1;jettySize=auto;html=1;exitX=0.5;exitY=1;exitDx=0;exitDy=0;entryX=0.5;entryY=0;entryDx=0;entryDy=0;fontSize=10;endArrow=none;endFill=0;" parent="1" source="Yns52e4Zez9bQJnsiGdB-1" target="Yns52e4Zez9bQJnsiGdB-6" edge="1">
          <mxGeometry relative="1" as="geometry" />
        </mxCell>
        <mxCell id="Yns52e4Zez9bQJnsiGdB-13" style="edgeStyle=orthogonalEdgeStyle;rounded=0;orthogonalLoop=1;jettySize=auto;html=1;fontSize=10;endArrow=none;endFill=0;" parent="1" source="Yns52e4Zez9bQJnsiGdB-1" target="Yns52e4Zez9bQJnsiGdB-8" edge="1">
          <mxGeometry relative="1" as="geometry" />
        </mxCell>
        <mxCell id="Yns52e4Zez9bQJnsiGdB-1" value="Alexander I Pavo&lt;br&gt;&quot;The Landed&quot;&lt;br&gt;5-78" style="rounded=1;whiteSpace=wrap;html=1;fillColor=#d5e8d4;strokeColor=#82b366;" parent="1" vertex="1">
          <mxGeometry x="605" y="39" width="120" height="61" as="geometry" />
        </mxCell>
        <mxCell id="Yns52e4Zez9bQJnsiGdB-2" value="&lt;br&gt;&lt;br&gt;" style="rounded=1;whiteSpace=wrap;html=1;fillColor=#dae8fc;strokeColor=#6c8ebf;" parent="1" vertex="1">
          <mxGeometry x="1360" y="4640" width="120" height="60" as="geometry" />
        </mxCell>
        <mxCell id="Yns52e4Zez9bQJnsiGdB-3" value="Erien I Hwyna&lt;br&gt;&quot;The Waterlord&quot;&lt;br&gt;626-700" style="rounded=1;whiteSpace=wrap;html=1;fillColor=#EBEBEB;strokeColor=#666666;fontColor=#333333;" parent="1" vertex="1">
          <mxGeometry x="445" y="2160" width="120" height="60" as="geometry" />
        </mxCell>
        <mxCell id="Yns52e4Zez9bQJnsiGdB-4" value="Kingdom of Sulyion" style="text;html=1;strokeColor=none;fillColor=none;align=center;verticalAlign=middle;whiteSpace=wrap;rounded=0;" parent="1" vertex="1">
          <mxGeometry x="610" y="19" width="110" height="20" as="geometry" />
        </mxCell>
        <mxCell id="Yns52e4Zez9bQJnsiGdB-5" value="25-78" style="text;html=1;strokeColor=none;fillColor=none;align=center;verticalAlign=middle;whiteSpace=wrap;rounded=0;" parent="1" vertex="1">
          <mxGeometry x="685" y="100" width="40" height="20" as="geometry" />
        </mxCell>
        <mxCell id="Yns52e4Zez9bQJnsiGdB-6" value="Duncan I Pavo&lt;br&gt;&quot;The Born&quot;&lt;br&gt;33-106" style="rounded=1;whiteSpace=wrap;html=1;fillColor=#d5e8d4;strokeColor=#82b366;" parent="1" vertex="1">
          <mxGeometry x="525" y="140" width="120" height="60" as="geometry" />
        </mxCell>
        <mxCell id="Yns52e4Zez9bQJnsiGdB-7" value="Kingdom Breaks apart in 1867?" style="text;html=1;strokeColor=none;fillColor=none;align=center;verticalAlign=middle;whiteSpace=wrap;rounded=0;" parent="1" vertex="1">
          <mxGeometry x="1375" y="4420" width="90" height="50" as="geometry" />
        </mxCell>
        <mxCell id="Yns52e4Zez9bQJnsiGdB-17" style="edgeStyle=orthogonalEdgeStyle;rounded=0;orthogonalLoop=1;jettySize=auto;html=1;entryX=0.5;entryY=0;entryDx=0;entryDy=0;fontSize=10;endArrow=none;endFill=0;" parent="1" source="Yns52e4Zez9bQJnsiGdB-8" target="Yns52e4Zez9bQJnsiGdB-16" edge="1">
          <mxGeometry relative="1" as="geometry" />
        </mxCell>
        <mxCell id="Yns52e4Zez9bQJnsiGdB-8" value="Constantine I Pavo&lt;br&gt;&quot;The Double&quot;&lt;br&gt;33-108" style="rounded=1;whiteSpace=wrap;html=1;fillColor=#d5e8d4;strokeColor=#82b366;" parent="1" vertex="1">
          <mxGeometry x="685" y="140" width="120" height="60" as="geometry" />
        </mxCell>
        <mxCell id="Yns52e4Zez9bQJnsiGdB-14" value="78-106" style="text;html=1;strokeColor=none;fillColor=none;align=center;verticalAlign=middle;whiteSpace=wrap;rounded=0;" parent="1" vertex="1">
          <mxGeometry x="605" y="200" width="40" height="20" as="geometry" />
        </mxCell>
        <mxCell id="Yns52e4Zez9bQJnsiGdB-20" style="edgeStyle=orthogonalEdgeStyle;rounded=0;orthogonalLoop=1;jettySize=auto;html=1;entryX=0.5;entryY=0;entryDx=0;entryDy=0;fontSize=10;endArrow=none;endFill=0;" parent="1" source="Yns52e4Zez9bQJnsiGdB-16" target="Yns52e4Zez9bQJnsiGdB-19" edge="1">
          <mxGeometry relative="1" as="geometry" />
        </mxCell>
        <mxCell id="Yns52e4Zez9bQJnsiGdB-22" style="edgeStyle=orthogonalEdgeStyle;rounded=0;orthogonalLoop=1;jettySize=auto;html=1;entryX=0.5;entryY=0;entryDx=0;entryDy=0;fontSize=10;endArrow=none;endFill=0;exitX=0.5;exitY=1;exitDx=0;exitDy=0;startArrow=none;" parent="1" source="Yns52e4Zez9bQJnsiGdB-16" target="Yns52e4Zez9bQJnsiGdB-21" edge="1">
          <mxGeometry relative="1" as="geometry">
            <Array as="points">
              <mxPoint x="745" y="320" />
              <mxPoint x="425" y="320" />
            </Array>
          </mxGeometry>
        </mxCell>
        <mxCell id="Yns52e4Zez9bQJnsiGdB-16" value="Simeon I Pavo&lt;br&gt;&quot;The Conquerer&quot;&lt;br&gt;78-129" style="rounded=1;whiteSpace=wrap;html=1;fillColor=#d5e8d4;strokeColor=#82b366;" parent="1" vertex="1">
          <mxGeometry x="685" y="240" width="120" height="60" as="geometry" />
        </mxCell>
        <mxCell id="Yns52e4Zez9bQJnsiGdB-18" value="106-108" style="text;html=1;strokeColor=none;fillColor=none;align=center;verticalAlign=middle;whiteSpace=wrap;rounded=0;" parent="1" vertex="1">
          <mxGeometry x="755" y="200" width="50" height="20" as="geometry" />
        </mxCell>
        <mxCell id="Yns52e4Zez9bQJnsiGdB-25" style="edgeStyle=orthogonalEdgeStyle;rounded=0;orthogonalLoop=1;jettySize=auto;html=1;fontSize=12;endArrow=none;endFill=0;" parent="1" source="Yns52e4Zez9bQJnsiGdB-19" target="Yns52e4Zez9bQJnsiGdB-23" edge="1">
          <mxGeometry relative="1" as="geometry" />
        </mxCell>
        <mxCell id="Yns52e4Zez9bQJnsiGdB-34" style="edgeStyle=orthogonalEdgeStyle;rounded=0;orthogonalLoop=1;jettySize=auto;html=1;fontSize=12;endArrow=none;endFill=0;" parent="1" source="Yns52e4Zez9bQJnsiGdB-19" target="Yns52e4Zez9bQJnsiGdB-32" edge="1">
          <mxGeometry relative="1" as="geometry">
            <Array as="points">
              <mxPoint x="665" y="370" />
            </Array>
          </mxGeometry>
        </mxCell>
        <mxCell id="Yns52e4Zez9bQJnsiGdB-19" value="Pavo I Pavo&lt;br&gt;&quot;The Western King&quot;&lt;br&gt;111-197" style="rounded=1;whiteSpace=wrap;html=1;fillColor=#d5e8d4;strokeColor=#82b366;" parent="1" vertex="1">
          <mxGeometry x="685" y="340" width="120" height="60" as="geometry" />
        </mxCell>
        <mxCell id="Yns52e4Zez9bQJnsiGdB-24" style="edgeStyle=orthogonalEdgeStyle;rounded=0;orthogonalLoop=1;jettySize=auto;html=1;entryX=0;entryY=0.5;entryDx=0;entryDy=0;fontSize=12;endArrow=none;endFill=0;" parent="1" source="Yns52e4Zez9bQJnsiGdB-21" target="Yns52e4Zez9bQJnsiGdB-23" edge="1">
          <mxGeometry relative="1" as="geometry" />
        </mxCell>
        <mxCell id="Yns52e4Zez9bQJnsiGdB-21" value="&lt;font style=&quot;font-size: 12px;&quot;&gt;Crown Prince&lt;br&gt;Alexander Pavo&lt;br&gt;103-129&lt;/font&gt;" style="rounded=1;whiteSpace=wrap;html=1;fontSize=10;" parent="1" vertex="1">
          <mxGeometry x="365" y="340" width="120" height="60" as="geometry" />
        </mxCell>
        <mxCell id="Yns52e4Zez9bQJnsiGdB-23" value="&lt;font style=&quot;font-size: 12px;&quot;&gt;Queen&lt;br&gt;Luna I Latia&lt;br&gt;107-201&lt;/font&gt;" style="rounded=1;whiteSpace=wrap;html=1;fontSize=10;fillColor=#dae8fc;strokeColor=#6c8ebf;" parent="1" vertex="1">
          <mxGeometry x="525" y="340" width="120" height="60" as="geometry" />
        </mxCell>
        <mxCell id="Yns52e4Zez9bQJnsiGdB-27" value="Kingdom of Cynum" style="text;html=1;strokeColor=none;fillColor=none;align=center;verticalAlign=middle;whiteSpace=wrap;rounded=0;" parent="1" vertex="1">
          <mxGeometry x="530" y="320" width="110" height="20" as="geometry" />
        </mxCell>
        <mxCell id="Yns52e4Zez9bQJnsiGdB-29" value="108-129" style="text;html=1;strokeColor=none;fillColor=none;align=center;verticalAlign=middle;whiteSpace=wrap;rounded=0;" parent="1" vertex="1">
          <mxGeometry x="755" y="300" width="50" height="20" as="geometry" />
        </mxCell>
        <mxCell id="Yns52e4Zez9bQJnsiGdB-36" value="" style="edgeStyle=orthogonalEdgeStyle;rounded=0;orthogonalLoop=1;jettySize=auto;html=1;fontSize=12;endArrow=none;endFill=0;" parent="1" source="Yns52e4Zez9bQJnsiGdB-32" target="Yns52e4Zez9bQJnsiGdB-33" edge="1">
          <mxGeometry relative="1" as="geometry" />
        </mxCell>
        <mxCell id="Yns52e4Zez9bQJnsiGdB-32" value="&lt;font style=&quot;font-size: 12px;&quot;&gt;Crown Prince&lt;br&gt;Alexander Pavo&lt;br&gt;142-179&lt;/font&gt;" style="rounded=1;whiteSpace=wrap;html=1;fontSize=10;" parent="1" vertex="1">
          <mxGeometry x="605" y="440" width="120" height="60" as="geometry" />
        </mxCell>
        <mxCell id="Yns52e4Zez9bQJnsiGdB-39" style="edgeStyle=orthogonalEdgeStyle;rounded=0;orthogonalLoop=1;jettySize=auto;html=1;entryX=0.5;entryY=0;entryDx=0;entryDy=0;fontSize=12;endArrow=none;endFill=0;" parent="1" source="Yns52e4Zez9bQJnsiGdB-33" target="Yns52e4Zez9bQJnsiGdB-38" edge="1">
          <mxGeometry relative="1" as="geometry" />
        </mxCell>
        <mxCell id="Yns52e4Zez9bQJnsiGdB-43" style="edgeStyle=orthogonalEdgeStyle;rounded=0;orthogonalLoop=1;jettySize=auto;html=1;entryX=0.5;entryY=0;entryDx=0;entryDy=0;fontSize=12;endArrow=none;endFill=0;" parent="1" source="Yns52e4Zez9bQJnsiGdB-33" target="Yns52e4Zez9bQJnsiGdB-40" edge="1">
          <mxGeometry relative="1" as="geometry" />
        </mxCell>
        <mxCell id="Yns52e4Zez9bQJnsiGdB-33" value="George I Pavo&lt;br&gt;&quot;The Seafarer&quot;&lt;br&gt;179-222" style="rounded=1;whiteSpace=wrap;html=1;fillColor=#d5e8d4;strokeColor=#82b366;" parent="1" vertex="1">
          <mxGeometry x="605" y="540" width="120" height="60" as="geometry" />
        </mxCell>
        <mxCell id="Yns52e4Zez9bQJnsiGdB-35" value="129-197" style="text;html=1;strokeColor=none;fillColor=none;align=center;verticalAlign=middle;whiteSpace=wrap;rounded=0;" parent="1" vertex="1">
          <mxGeometry x="755" y="400" width="50" height="20" as="geometry" />
        </mxCell>
        <mxCell id="Yns52e4Zez9bQJnsiGdB-37" value="Regent:&lt;br&gt;129-131,197-199" style="text;html=1;strokeColor=none;fillColor=none;align=center;verticalAlign=middle;whiteSpace=wrap;rounded=0;fontSize=12;" parent="1" vertex="1">
          <mxGeometry x="540" y="400" width="100" height="30" as="geometry" />
        </mxCell>
        <mxCell id="Yns52e4Zez9bQJnsiGdB-42" style="edgeStyle=orthogonalEdgeStyle;rounded=0;orthogonalLoop=1;jettySize=auto;html=1;entryX=0.5;entryY=0;entryDx=0;entryDy=0;fontSize=12;endArrow=none;endFill=0;" parent="1" source="Yns52e4Zez9bQJnsiGdB-38" target="Yns52e4Zez9bQJnsiGdB-41" edge="1">
          <mxGeometry relative="1" as="geometry" />
        </mxCell>
        <mxCell id="Yns52e4Zez9bQJnsiGdB-38" value="Pavo II Pavo&lt;br&gt;&quot;Secundo&quot;&lt;br&gt;200-252" style="rounded=1;whiteSpace=wrap;html=1;fillColor=#d5e8d4;strokeColor=#82b366;" parent="1" vertex="1">
          <mxGeometry x="525" y="640" width="120" height="60" as="geometry" />
        </mxCell>
        <mxCell id="Yns52e4Zez9bQJnsiGdB-47" style="edgeStyle=orthogonalEdgeStyle;rounded=0;orthogonalLoop=1;jettySize=auto;html=1;entryX=0.5;entryY=0;entryDx=0;entryDy=0;fontSize=12;endArrow=none;endFill=0;" parent="1" source="Yns52e4Zez9bQJnsiGdB-40" target="Yns52e4Zez9bQJnsiGdB-46" edge="1">
          <mxGeometry relative="1" as="geometry" />
        </mxCell>
        <mxCell id="Yns52e4Zez9bQJnsiGdB-40" value="Alexander II Pavo&lt;br&gt;&quot;King of Centuries&quot;&lt;br&gt;212-299" style="rounded=1;whiteSpace=wrap;html=1;fillColor=#d5e8d4;strokeColor=#82b366;" parent="1" vertex="1">
          <mxGeometry x="685" y="640" width="120" height="60" as="geometry" />
        </mxCell>
        <mxCell id="Yns52e4Zez9bQJnsiGdB-41" value="Duncan II Pavo&lt;br&gt;&quot;The Lost&quot;&lt;br&gt;221-254" style="rounded=1;whiteSpace=wrap;html=1;fillColor=#d5e8d4;strokeColor=#82b366;" parent="1" vertex="1">
          <mxGeometry x="525" y="740" width="120" height="60" as="geometry" />
        </mxCell>
        <mxCell id="Yns52e4Zez9bQJnsiGdB-44" value="197-222" style="text;html=1;strokeColor=none;fillColor=none;align=center;verticalAlign=middle;whiteSpace=wrap;rounded=0;" parent="1" vertex="1">
          <mxGeometry x="675" y="600" width="50" height="20" as="geometry" />
        </mxCell>
        <mxCell id="1V0PkYinogMniD-irILl-4" style="edgeStyle=orthogonalEdgeStyle;rounded=0;orthogonalLoop=1;jettySize=auto;html=1;endArrow=none;endFill=0;" parent="1" source="Yns52e4Zez9bQJnsiGdB-46" target="1V0PkYinogMniD-irILl-2" edge="1">
          <mxGeometry relative="1" as="geometry">
            <Array as="points">
              <mxPoint x="745" y="820" />
              <mxPoint x="665" y="820" />
            </Array>
          </mxGeometry>
        </mxCell>
        <mxCell id="1V0PkYinogMniD-irILl-5" style="edgeStyle=orthogonalEdgeStyle;rounded=0;orthogonalLoop=1;jettySize=auto;html=1;entryX=0.5;entryY=0;entryDx=0;entryDy=0;endArrow=none;endFill=0;" parent="1" source="Yns52e4Zez9bQJnsiGdB-46" target="1V0PkYinogMniD-irILl-3" edge="1">
          <mxGeometry relative="1" as="geometry" />
        </mxCell>
        <mxCell id="Yns52e4Zez9bQJnsiGdB-46" value="Victor I Pavo&lt;br&gt;&quot;The Peaceful&quot;&lt;br&gt;236-336" style="rounded=1;whiteSpace=wrap;html=1;fillColor=#d5e8d4;strokeColor=#82b366;" parent="1" vertex="1">
          <mxGeometry x="685" y="740" width="120" height="60" as="geometry" />
        </mxCell>
        <mxCell id="Yns52e4Zez9bQJnsiGdB-48" value="222-252" style="text;html=1;strokeColor=none;fillColor=none;align=center;verticalAlign=middle;whiteSpace=wrap;rounded=0;" parent="1" vertex="1">
          <mxGeometry x="595" y="700" width="50" height="20" as="geometry" />
        </mxCell>
        <mxCell id="Yns52e4Zez9bQJnsiGdB-49" value="252-254" style="text;html=1;strokeColor=none;fillColor=none;align=center;verticalAlign=middle;whiteSpace=wrap;rounded=0;" parent="1" vertex="1">
          <mxGeometry x="595" y="800" width="50" height="20" as="geometry" />
        </mxCell>
        <mxCell id="Yns52e4Zez9bQJnsiGdB-50" value="254-299" style="text;html=1;strokeColor=none;fillColor=none;align=center;verticalAlign=middle;whiteSpace=wrap;rounded=0;" parent="1" vertex="1">
          <mxGeometry x="755" y="700" width="50" height="20" as="geometry" />
        </mxCell>
        <mxCell id="Yns52e4Zez9bQJnsiGdB-51" value="299-336" style="text;html=1;strokeColor=none;fillColor=none;align=center;verticalAlign=middle;whiteSpace=wrap;rounded=0;" parent="1" vertex="1">
          <mxGeometry x="755" y="800" width="50" height="20" as="geometry" />
        </mxCell>
        <mxCell id="1V0PkYinogMniD-irILl-10" style="edgeStyle=orthogonalEdgeStyle;rounded=0;orthogonalLoop=1;jettySize=auto;html=1;entryX=0.5;entryY=0;entryDx=0;entryDy=0;endArrow=none;endFill=0;" parent="1" source="1V0PkYinogMniD-irILl-2" target="1V0PkYinogMniD-irILl-6" edge="1">
          <mxGeometry relative="1" as="geometry" />
        </mxCell>
        <mxCell id="1V0PkYinogMniD-irILl-2" value="Adam I Pavo&lt;br&gt;&quot;The Lover&quot;&lt;br&gt;274-337" style="rounded=1;whiteSpace=wrap;html=1;fillColor=#d5e8d4;strokeColor=#82b366;" parent="1" vertex="1">
          <mxGeometry x="605" y="840" width="120" height="60" as="geometry" />
        </mxCell>
        <mxCell id="1V0PkYinogMniD-irILl-12" style="edgeStyle=orthogonalEdgeStyle;rounded=0;orthogonalLoop=1;jettySize=auto;html=1;entryX=0.5;entryY=0;entryDx=0;entryDy=0;endArrow=none;endFill=0;" parent="1" source="1V0PkYinogMniD-irILl-3" target="1V0PkYinogMniD-irILl-8" edge="1">
          <mxGeometry relative="1" as="geometry" />
        </mxCell>
        <mxCell id="1V0PkYinogMniD-irILl-3" value="Prince&lt;br&gt;Joseph Pavo&lt;br&gt;279-338" style="rounded=1;whiteSpace=wrap;html=1;" parent="1" vertex="1">
          <mxGeometry x="765" y="840" width="120" height="60" as="geometry" />
        </mxCell>
        <mxCell id="1V0PkYinogMniD-irILl-11" style="edgeStyle=orthogonalEdgeStyle;rounded=0;orthogonalLoop=1;jettySize=auto;html=1;entryX=0.5;entryY=0;entryDx=0;entryDy=0;endArrow=none;endFill=0;" parent="1" source="1V0PkYinogMniD-irILl-6" target="1V0PkYinogMniD-irILl-9" edge="1">
          <mxGeometry relative="1" as="geometry" />
        </mxCell>
        <mxCell id="1V0PkYinogMniD-irILl-6" value="Simeon II Pavo&lt;br&gt;&quot;The Weak&quot;&lt;br&gt;292-341" style="rounded=1;whiteSpace=wrap;html=1;fillColor=#d5e8d4;strokeColor=#82b366;" parent="1" vertex="1">
          <mxGeometry x="605" y="940" width="120" height="60" as="geometry" />
        </mxCell>
        <mxCell id="1V0PkYinogMniD-irILl-24" style="edgeStyle=orthogonalEdgeStyle;rounded=0;orthogonalLoop=1;jettySize=auto;html=1;entryX=0.5;entryY=0;entryDx=0;entryDy=0;endArrow=none;endFill=0;" parent="1" source="1V0PkYinogMniD-irILl-7" target="1V0PkYinogMniD-irILl-18" edge="1">
          <mxGeometry relative="1" as="geometry">
            <Array as="points">
              <mxPoint x="745" y="1070" />
            </Array>
          </mxGeometry>
        </mxCell>
        <mxCell id="1V0PkYinogMniD-irILl-7" value="Alexander III Pavo&lt;br&gt;&quot;The Northern King&quot;&lt;br&gt;316-375" style="rounded=1;whiteSpace=wrap;html=1;fillColor=#EBEBEB;strokeColor=#666666;fontColor=#333333;" parent="1" vertex="1">
          <mxGeometry x="765" y="1040" width="120" height="60" as="geometry" />
        </mxCell>
        <mxCell id="1V0PkYinogMniD-irILl-13" style="edgeStyle=orthogonalEdgeStyle;rounded=0;orthogonalLoop=1;jettySize=auto;html=1;entryX=0.5;entryY=0;entryDx=0;entryDy=0;endArrow=none;endFill=0;" parent="1" source="1V0PkYinogMniD-irILl-8" target="1V0PkYinogMniD-irILl-7" edge="1">
          <mxGeometry relative="1" as="geometry" />
        </mxCell>
        <mxCell id="1V0PkYinogMniD-irILl-8" value="Prince&lt;br&gt;Albert Pavo&lt;br&gt;282-318" style="rounded=1;whiteSpace=wrap;html=1;" parent="1" vertex="1">
          <mxGeometry x="765" y="940" width="120" height="60" as="geometry" />
        </mxCell>
        <mxCell id="1V0PkYinogMniD-irILl-14" style="edgeStyle=orthogonalEdgeStyle;rounded=0;orthogonalLoop=1;jettySize=auto;html=1;entryX=0;entryY=0.5;entryDx=0;entryDy=0;endArrow=none;endFill=0;" parent="1" source="1V0PkYinogMniD-irILl-9" target="1V0PkYinogMniD-irILl-7" edge="1">
          <mxGeometry relative="1" as="geometry" />
        </mxCell>
        <mxCell id="1V0PkYinogMniD-irILl-9" value="Jane I Pavo&lt;br&gt;&quot;The Second Moon&quot;&lt;br&gt;320-369" style="rounded=1;whiteSpace=wrap;html=1;fillColor=#dae8fc;strokeColor=#6c8ebf;" parent="1" vertex="1">
          <mxGeometry x="605" y="1040" width="120" height="60" as="geometry" />
        </mxCell>
        <mxCell id="1V0PkYinogMniD-irILl-15" value="North Sulyion" style="text;html=1;strokeColor=none;fillColor=none;align=center;verticalAlign=middle;whiteSpace=wrap;rounded=0;" parent="1" vertex="1">
          <mxGeometry x="775" y="1020" width="110" height="20" as="geometry" />
        </mxCell>
        <mxCell id="1V0PkYinogMniD-irILl-17" value="South Sulyion" style="text;html=1;strokeColor=none;fillColor=none;align=center;verticalAlign=middle;whiteSpace=wrap;rounded=0;" parent="1" vertex="1">
          <mxGeometry x="615" y="1020" width="110" height="20" as="geometry" />
        </mxCell>
        <mxCell id="1V0PkYinogMniD-irILl-31" style="edgeStyle=orthogonalEdgeStyle;rounded=0;orthogonalLoop=1;jettySize=auto;html=1;entryX=0.5;entryY=0;entryDx=0;entryDy=0;endArrow=none;endFill=0;" parent="1" source="1V0PkYinogMniD-irILl-18" target="1V0PkYinogMniD-irILl-29" edge="1">
          <mxGeometry relative="1" as="geometry" />
        </mxCell>
        <mxCell id="1V0PkYinogMniD-irILl-18" value="Peter I Pavo&lt;br&gt;&quot;The Decadent&quot;&lt;br&gt;354-404" style="rounded=1;whiteSpace=wrap;html=1;fillColor=#d5e8d4;strokeColor=#82b366;" parent="1" vertex="1">
          <mxGeometry x="685" y="1140" width="120" height="60" as="geometry" />
        </mxCell>
        <mxCell id="1V0PkYinogMniD-irILl-23" value="&lt;br&gt;&lt;br&gt;" style="rounded=1;whiteSpace=wrap;html=1;" parent="1" vertex="1">
          <mxGeometry x="1360" y="4720" width="120" height="60" as="geometry" />
        </mxCell>
        <mxCell id="1V0PkYinogMniD-irILl-25" value="&amp;nbsp;Sulyion" style="text;html=1;strokeColor=none;fillColor=none;align=center;verticalAlign=middle;whiteSpace=wrap;rounded=0;movable=1;resizable=1;rotatable=1;deletable=1;editable=1;connectable=1;points=[[0,0,0,0,0],[0,0.25,0,0,0],[0,0.5,0,0,0],[0,0.75,0,0,0],[0,1,0,0,0],[0.25,0,0,0,0],[0.25,1,0,0,0],[0.47,0,0,0,0],[0.47,1,0,0,0],[0.75,0,0,0,0],[0.75,1,0,0,0],[1,0,0,0,0],[1,0.25,0,0,0],[1,0.5,0,0,0],[1,0.75,0,0,0],[1,1,0,0,0]];" parent="1" vertex="1">
          <mxGeometry x="745" y="1120" width="40" height="20" as="geometry" />
        </mxCell>
        <mxCell id="1V0PkYinogMniD-irILl-27" value="United" style="text;html=1;strokeColor=none;fillColor=none;align=center;verticalAlign=middle;whiteSpace=wrap;rounded=0;movable=1;resizable=1;rotatable=1;deletable=1;editable=1;connectable=1;points=[[0,0,0,0,0],[0,0.25,0,0,0],[0,0.5,0,0,0],[0,0.75,0,0,0],[0,1,0,0,0],[0.25,0,0,0,0],[0.25,1,0,0,0],[0.47,0,0,0,0],[0.47,1,0,0,0],[0.75,0,0,0,0],[0.75,1,0,0,0],[1,0,0,0,0],[1,0.25,0,0,0],[1,0.5,0,0,0],[1,0.75,0,0,0],[1,1,0,0,0]];" parent="1" vertex="1">
          <mxGeometry x="705" y="1120" width="40" height="20" as="geometry" />
        </mxCell>
        <mxCell id="1V0PkYinogMniD-irILl-28" value="336-337" style="text;html=1;strokeColor=none;fillColor=none;align=center;verticalAlign=middle;whiteSpace=wrap;rounded=0;" parent="1" vertex="1">
          <mxGeometry x="675" y="900" width="50" height="20" as="geometry" />
        </mxCell>
        <mxCell id="1V0PkYinogMniD-irILl-33" style="edgeStyle=orthogonalEdgeStyle;rounded=0;orthogonalLoop=1;jettySize=auto;html=1;entryX=1;entryY=0.5;entryDx=0;entryDy=0;endArrow=none;endFill=0;" parent="1" source="1V0PkYinogMniD-irILl-29" target="1V0PkYinogMniD-irILl-32" edge="1">
          <mxGeometry relative="1" as="geometry" />
        </mxCell>
        <mxCell id="1V0PkYinogMniD-irILl-39" style="edgeStyle=orthogonalEdgeStyle;rounded=0;orthogonalLoop=1;jettySize=auto;html=1;entryX=0.5;entryY=0;entryDx=0;entryDy=0;endArrow=none;endFill=0;" parent="1" source="1V0PkYinogMniD-irILl-29" target="1V0PkYinogMniD-irILl-38" edge="1">
          <mxGeometry relative="1" as="geometry">
            <Array as="points">
              <mxPoint x="665" y="1270" />
            </Array>
          </mxGeometry>
        </mxCell>
        <mxCell id="1V0PkYinogMniD-irILl-29" value="Alexandra I Pavo&lt;br&gt;&quot;The Last&quot;&lt;br&gt;377-455" style="rounded=1;whiteSpace=wrap;html=1;fillColor=#d5e8d4;strokeColor=#82b366;" parent="1" vertex="1">
          <mxGeometry x="685" y="1240" width="120" height="60" as="geometry" />
        </mxCell>
        <mxCell id="1V0PkYinogMniD-irILl-32" value="George II Agna&lt;br&gt;&quot;The Husband&quot;&lt;br&gt;380-452" style="rounded=1;whiteSpace=wrap;html=1;fillColor=#d5e8d4;strokeColor=#82b366;" parent="1" vertex="1">
          <mxGeometry x="525" y="1240" width="120" height="60" as="geometry" />
        </mxCell>
        <mxCell id="1V0PkYinogMniD-irILl-34" value="337-341" style="text;html=1;strokeColor=none;fillColor=none;align=center;verticalAlign=middle;whiteSpace=wrap;rounded=0;" parent="1" vertex="1">
          <mxGeometry x="675" y="1000" width="50" height="20" as="geometry" />
        </mxCell>
        <mxCell id="1V0PkYinogMniD-irILl-35" value="341-369" style="text;html=1;strokeColor=none;fillColor=none;align=center;verticalAlign=middle;whiteSpace=wrap;rounded=0;" parent="1" vertex="1">
          <mxGeometry x="675" y="1100" width="50" height="20" as="geometry" />
        </mxCell>
        <mxCell id="1V0PkYinogMniD-irILl-36" value="341-375" style="text;html=1;strokeColor=none;fillColor=none;align=center;verticalAlign=middle;whiteSpace=wrap;rounded=0;" parent="1" vertex="1">
          <mxGeometry x="835" y="1100" width="50" height="20" as="geometry" />
        </mxCell>
        <mxCell id="1V0PkYinogMniD-irILl-37" value="369/375-404" style="text;html=1;strokeColor=none;fillColor=none;align=center;verticalAlign=middle;whiteSpace=wrap;rounded=0;" parent="1" vertex="1">
          <mxGeometry x="745" y="1200" width="70" height="20" as="geometry" />
        </mxCell>
        <mxCell id="j6bOyk4aHJez_X9jCBpq-2" style="edgeStyle=orthogonalEdgeStyle;rounded=0;orthogonalLoop=1;jettySize=auto;html=1;entryX=0.5;entryY=0;entryDx=0;entryDy=0;endArrow=none;endFill=0;" parent="1" source="1V0PkYinogMniD-irILl-38" target="j6bOyk4aHJez_X9jCBpq-1" edge="1">
          <mxGeometry relative="1" as="geometry" />
        </mxCell>
        <mxCell id="1V0PkYinogMniD-irILl-38" value="Lucius I Agna&lt;br&gt;&quot;The Reviver&quot;&lt;br&gt;410-486" style="rounded=1;whiteSpace=wrap;html=1;fillColor=#d5e8d4;strokeColor=#82b366;" parent="1" vertex="1">
          <mxGeometry x="605" y="1340" width="120" height="60" as="geometry" />
        </mxCell>
        <mxCell id="1V0PkYinogMniD-irILl-40" value="404-455" style="text;html=1;strokeColor=none;fillColor=none;align=center;verticalAlign=middle;whiteSpace=wrap;rounded=0;" parent="1" vertex="1">
          <mxGeometry x="755" y="1300" width="50" height="20" as="geometry" />
        </mxCell>
        <mxCell id="1V0PkYinogMniD-irILl-41" value="Jure Uxoris:&lt;br&gt;404-452" style="text;html=1;strokeColor=none;fillColor=none;align=center;verticalAlign=middle;whiteSpace=wrap;rounded=0;" parent="1" vertex="1">
          <mxGeometry x="550" y="1300" width="80" height="30" as="geometry" />
        </mxCell>
        <mxCell id="1V0PkYinogMniD-irILl-42" value="455-486" style="text;html=1;strokeColor=none;fillColor=none;align=center;verticalAlign=middle;whiteSpace=wrap;rounded=0;" parent="1" vertex="1">
          <mxGeometry x="675" y="1400" width="50" height="20" as="geometry" />
        </mxCell>
        <mxCell id="j6bOyk4aHJez_X9jCBpq-4" style="edgeStyle=orthogonalEdgeStyle;rounded=0;orthogonalLoop=1;jettySize=auto;html=1;entryX=0.5;entryY=0;entryDx=0;entryDy=0;endArrow=none;endFill=0;" parent="1" source="j6bOyk4aHJez_X9jCBpq-1" target="j6bOyk4aHJez_X9jCBpq-3" edge="1">
          <mxGeometry relative="1" as="geometry">
            <Array as="points">
              <mxPoint x="665" y="1520" />
              <mxPoint x="265" y="1520" />
            </Array>
          </mxGeometry>
        </mxCell>
        <mxCell id="j6bOyk4aHJez_X9jCBpq-8" style="edgeStyle=orthogonalEdgeStyle;rounded=0;orthogonalLoop=1;jettySize=auto;html=1;entryX=0.5;entryY=0;entryDx=0;entryDy=0;endArrow=none;endFill=0;" parent="1" source="j6bOyk4aHJez_X9jCBpq-1" target="j6bOyk4aHJez_X9jCBpq-7" edge="1">
          <mxGeometry relative="1" as="geometry">
            <Array as="points">
              <mxPoint x="665" y="1520" />
              <mxPoint x="425" y="1520" />
            </Array>
          </mxGeometry>
        </mxCell>
        <mxCell id="j6bOyk4aHJez_X9jCBpq-14" style="edgeStyle=orthogonalEdgeStyle;rounded=0;orthogonalLoop=1;jettySize=auto;html=1;endArrow=none;endFill=0;" parent="1" source="j6bOyk4aHJez_X9jCBpq-1" target="j6bOyk4aHJez_X9jCBpq-12" edge="1">
          <mxGeometry relative="1" as="geometry" />
        </mxCell>
        <mxCell id="j6bOyk4aHJez_X9jCBpq-15" style="edgeStyle=orthogonalEdgeStyle;rounded=0;orthogonalLoop=1;jettySize=auto;html=1;endArrow=none;endFill=0;" parent="1" source="j6bOyk4aHJez_X9jCBpq-1" target="j6bOyk4aHJez_X9jCBpq-13" edge="1">
          <mxGeometry relative="1" as="geometry">
            <Array as="points">
              <mxPoint x="665" y="1520" />
              <mxPoint x="905" y="1520" />
            </Array>
          </mxGeometry>
        </mxCell>
        <mxCell id="j6bOyk4aHJez_X9jCBpq-1" value="Crown Prince&lt;br&gt;Alexander Agna&lt;br&gt;439-479" style="rounded=1;whiteSpace=wrap;html=1;" parent="1" vertex="1">
          <mxGeometry x="605" y="1440" width="120" height="60" as="geometry" />
        </mxCell>
        <mxCell id="j6bOyk4aHJez_X9jCBpq-6" style="edgeStyle=orthogonalEdgeStyle;rounded=0;orthogonalLoop=1;jettySize=auto;html=1;entryX=0.5;entryY=0;entryDx=0;entryDy=0;endArrow=none;endFill=0;" parent="1" source="j6bOyk4aHJez_X9jCBpq-3" target="j6bOyk4aHJez_X9jCBpq-5" edge="1">
          <mxGeometry relative="1" as="geometry" />
        </mxCell>
        <mxCell id="j6bOyk4aHJez_X9jCBpq-3" value="Pavo III Agna&lt;br&gt;&quot;The Scholar&quot;&lt;br&gt;460-506" style="rounded=1;whiteSpace=wrap;html=1;fillColor=#d5e8d4;strokeColor=#82b366;" parent="1" vertex="1">
          <mxGeometry x="205" y="1540" width="120" height="60" as="geometry" />
        </mxCell>
        <mxCell id="j6bOyk4aHJez_X9jCBpq-5" value="Elizabeth I Agna&lt;br&gt;&quot;Virgo&quot;&lt;br&gt;485-508" style="rounded=1;whiteSpace=wrap;html=1;fillColor=#d5e8d4;strokeColor=#82b366;" parent="1" vertex="1">
          <mxGeometry x="205" y="1640" width="120" height="60" as="geometry" />
        </mxCell>
        <mxCell id="j6bOyk4aHJez_X9jCBpq-10" style="edgeStyle=orthogonalEdgeStyle;rounded=0;orthogonalLoop=1;jettySize=auto;html=1;endArrow=none;endFill=0;" parent="1" source="j6bOyk4aHJez_X9jCBpq-7" target="j6bOyk4aHJez_X9jCBpq-9" edge="1">
          <mxGeometry relative="1" as="geometry" />
        </mxCell>
        <mxCell id="j6bOyk4aHJez_X9jCBpq-7" value="Prince&lt;br&gt;Lucas Agna&lt;br&gt;463-505" style="rounded=1;whiteSpace=wrap;html=1;" parent="1" vertex="1">
          <mxGeometry x="365" y="1540" width="120" height="60" as="geometry" />
        </mxCell>
        <mxCell id="j6bOyk4aHJez_X9jCBpq-9" value="Issac I Agna&lt;br&gt;&quot;The Short&quot;&lt;br&gt;483-513" style="rounded=1;whiteSpace=wrap;html=1;fillColor=#d5e8d4;strokeColor=#82b366;" parent="1" vertex="1">
          <mxGeometry x="365" y="1640" width="120" height="60" as="geometry" />
        </mxCell>
        <mxCell id="j6bOyk4aHJez_X9jCBpq-17" style="edgeStyle=orthogonalEdgeStyle;rounded=0;orthogonalLoop=1;jettySize=auto;html=1;entryX=0.5;entryY=0;entryDx=0;entryDy=0;endArrow=none;endFill=0;" parent="1" source="j6bOyk4aHJez_X9jCBpq-12" target="j6bOyk4aHJez_X9jCBpq-16" edge="1">
          <mxGeometry relative="1" as="geometry">
            <Array as="points">
              <mxPoint x="665" y="1570" />
              <mxPoint x="665" y="1620" />
              <mxPoint x="590" y="1620" />
            </Array>
          </mxGeometry>
        </mxCell>
        <mxCell id="j6bOyk4aHJez_X9jCBpq-33" style="edgeStyle=orthogonalEdgeStyle;rounded=0;orthogonalLoop=1;jettySize=auto;html=1;entryX=0;entryY=0.5;entryDx=0;entryDy=0;endArrow=none;endFill=0;" parent="1" source="j6bOyk4aHJez_X9jCBpq-12" target="j6bOyk4aHJez_X9jCBpq-32" edge="1">
          <mxGeometry relative="1" as="geometry" />
        </mxCell>
        <mxCell id="j6bOyk4aHJez_X9jCBpq-12" value="Alexander IV Agna&lt;br&gt;&quot;The Fighter&quot;&lt;br&gt;480-517" style="rounded=1;whiteSpace=wrap;html=1;fillColor=#d5e8d4;strokeColor=#82b366;" parent="1" vertex="1">
          <mxGeometry x="525" y="1540" width="120" height="60" as="geometry" />
        </mxCell>
        <mxCell id="j6bOyk4aHJez_X9jCBpq-29" style="edgeStyle=orthogonalEdgeStyle;rounded=0;orthogonalLoop=1;jettySize=auto;html=1;entryX=0.5;entryY=0;entryDx=0;entryDy=0;endArrow=none;endFill=0;" parent="1" source="j6bOyk4aHJez_X9jCBpq-13" target="j6bOyk4aHJez_X9jCBpq-26" edge="1">
          <mxGeometry relative="1" as="geometry" />
        </mxCell>
        <mxCell id="j6bOyk4aHJez_X9jCBpq-13" value="Henry I Agna&lt;br&gt;&quot;The Spare&quot;&lt;br&gt;480-572" style="rounded=1;whiteSpace=wrap;html=1;fillColor=#d5e8d4;strokeColor=#82b366;" parent="1" vertex="1">
          <mxGeometry x="845" y="1540" width="120" height="60" as="geometry" />
        </mxCell>
        <mxCell id="j6bOyk4aHJez_X9jCBpq-22" style="edgeStyle=orthogonalEdgeStyle;rounded=0;orthogonalLoop=1;jettySize=auto;html=1;entryX=0.5;entryY=0;entryDx=0;entryDy=0;endArrow=none;endFill=0;" parent="1" source="j6bOyk4aHJez_X9jCBpq-16" target="j6bOyk4aHJez_X9jCBpq-18" edge="1">
          <mxGeometry relative="1" as="geometry">
            <Array as="points">
              <mxPoint x="665" y="1670" />
              <mxPoint x="665" y="1720" />
              <mxPoint x="585" y="1720" />
            </Array>
          </mxGeometry>
        </mxCell>
        <mxCell id="j6bOyk4aHJez_X9jCBpq-23" style="edgeStyle=orthogonalEdgeStyle;rounded=0;orthogonalLoop=1;jettySize=auto;html=1;entryX=0.5;entryY=0;entryDx=0;entryDy=0;endArrow=none;endFill=0;" parent="1" source="j6bOyk4aHJez_X9jCBpq-16" target="j6bOyk4aHJez_X9jCBpq-19" edge="1">
          <mxGeometry relative="1" as="geometry">
            <Array as="points">
              <mxPoint x="665" y="1670" />
              <mxPoint x="665" y="1720" />
              <mxPoint x="745" y="1720" />
            </Array>
          </mxGeometry>
        </mxCell>
        <mxCell id="j6bOyk4aHJez_X9jCBpq-16" value="George III Agna&lt;br&gt;&quot;The Warrior&quot;&lt;br&gt;498-525" style="rounded=1;whiteSpace=wrap;html=1;fillColor=#d5e8d4;strokeColor=#82b366;" parent="1" vertex="1">
          <mxGeometry x="530" y="1640" width="120" height="60" as="geometry" />
        </mxCell>
        <mxCell id="j6bOyk4aHJez_X9jCBpq-24" style="edgeStyle=orthogonalEdgeStyle;rounded=0;orthogonalLoop=1;jettySize=auto;html=1;entryX=0.5;entryY=0;entryDx=0;entryDy=0;endArrow=none;endFill=0;" parent="1" source="j6bOyk4aHJez_X9jCBpq-18" target="j6bOyk4aHJez_X9jCBpq-21" edge="1">
          <mxGeometry relative="1" as="geometry">
            <Array as="points">
              <mxPoint x="585" y="1810" />
              <mxPoint x="585" y="1810" />
            </Array>
          </mxGeometry>
        </mxCell>
        <mxCell id="j6bOyk4aHJez_X9jCBpq-25" style="edgeStyle=orthogonalEdgeStyle;rounded=0;orthogonalLoop=1;jettySize=auto;html=1;entryX=0.5;entryY=0;entryDx=0;entryDy=0;endArrow=none;endFill=0;" parent="1" source="j6bOyk4aHJez_X9jCBpq-18" target="j6bOyk4aHJez_X9jCBpq-20" edge="1">
          <mxGeometry relative="1" as="geometry">
            <Array as="points">
              <mxPoint x="505" y="1770" />
              <mxPoint x="505" y="1820" />
              <mxPoint x="425" y="1820" />
            </Array>
          </mxGeometry>
        </mxCell>
        <mxCell id="j6bOyk4aHJez_X9jCBpq-40" style="edgeStyle=orthogonalEdgeStyle;rounded=0;orthogonalLoop=1;jettySize=auto;html=1;entryX=1;entryY=0.5;entryDx=0;entryDy=0;endArrow=none;endFill=0;" parent="1" source="j6bOyk4aHJez_X9jCBpq-18" target="j6bOyk4aHJez_X9jCBpq-39" edge="1">
          <mxGeometry relative="1" as="geometry" />
        </mxCell>
        <mxCell id="j6bOyk4aHJez_X9jCBpq-18" value="Julius I Agna&lt;br&gt;&quot;Pacifier&quot;&lt;br&gt;517-543" style="rounded=1;whiteSpace=wrap;html=1;fillColor=#d5e8d4;strokeColor=#82b366;" parent="1" vertex="1">
          <mxGeometry x="525" y="1740" width="120" height="60" as="geometry" />
        </mxCell>
        <mxCell id="j6bOyk4aHJez_X9jCBpq-19" value="Duncan III Agna&lt;br&gt;&quot;The Jester&quot;&lt;br&gt;517-570" style="rounded=1;whiteSpace=wrap;html=1;fillColor=#d5e8d4;strokeColor=#82b366;" parent="1" vertex="1">
          <mxGeometry x="685" y="1740" width="120" height="60" as="geometry" />
        </mxCell>
        <mxCell id="j6bOyk4aHJez_X9jCBpq-20" value="&amp;nbsp;Sophie I Agna&lt;br&gt;&quot;The Helpful&quot;&lt;br&gt;536-567" style="rounded=1;whiteSpace=wrap;html=1;fillColor=#d5e8d4;strokeColor=#82b366;" parent="1" vertex="1">
          <mxGeometry x="365" y="1840" width="120" height="60" as="geometry" />
        </mxCell>
        <mxCell id="j6bOyk4aHJez_X9jCBpq-21" value="Alexander V Agna&lt;br&gt;&quot;Cursebreaker&quot;&lt;br&gt;539-544" style="rounded=1;whiteSpace=wrap;html=1;fillColor=#d5e8d4;strokeColor=#82b366;" parent="1" vertex="1">
          <mxGeometry x="525" y="1840" width="120" height="60" as="geometry" />
        </mxCell>
        <mxCell id="j6bOyk4aHJez_X9jCBpq-30" style="edgeStyle=orthogonalEdgeStyle;rounded=0;orthogonalLoop=1;jettySize=auto;html=1;entryX=0.5;entryY=0;entryDx=0;entryDy=0;endArrow=none;endFill=0;" parent="1" source="j6bOyk4aHJez_X9jCBpq-26" target="j6bOyk4aHJez_X9jCBpq-27" edge="1">
          <mxGeometry relative="1" as="geometry" />
        </mxCell>
        <mxCell id="j6bOyk4aHJez_X9jCBpq-26" value="Prince&lt;br&gt;Lucas Agna&lt;br&gt;505-568" style="rounded=1;whiteSpace=wrap;html=1;" parent="1" vertex="1">
          <mxGeometry x="845" y="1640" width="120" height="60" as="geometry" />
        </mxCell>
        <mxCell id="j6bOyk4aHJez_X9jCBpq-31" style="edgeStyle=orthogonalEdgeStyle;rounded=0;orthogonalLoop=1;jettySize=auto;html=1;entryX=0.5;entryY=0;entryDx=0;entryDy=0;endArrow=none;endFill=0;" parent="1" source="j6bOyk4aHJez_X9jCBpq-27" target="j6bOyk4aHJez_X9jCBpq-28" edge="1">
          <mxGeometry relative="1" as="geometry" />
        </mxCell>
        <mxCell id="j6bOyk4aHJez_X9jCBpq-27" value="Prince&lt;br&gt;Simon Agna&lt;br&gt;522-552" style="rounded=1;whiteSpace=wrap;html=1;" parent="1" vertex="1">
          <mxGeometry x="845" y="1740" width="120" height="60" as="geometry" />
        </mxCell>
        <mxCell id="j6bOyk4aHJez_X9jCBpq-46" style="edgeStyle=orthogonalEdgeStyle;rounded=0;orthogonalLoop=1;jettySize=auto;html=1;entryX=0.5;entryY=0;entryDx=0;entryDy=0;endArrow=none;endFill=0;" parent="1" source="j6bOyk4aHJez_X9jCBpq-28" target="j6bOyk4aHJez_X9jCBpq-45" edge="1">
          <mxGeometry relative="1" as="geometry">
            <Array as="points">
              <mxPoint x="825" y="1870" />
            </Array>
          </mxGeometry>
        </mxCell>
        <mxCell id="j6bOyk4aHJez_X9jCBpq-58" style="edgeStyle=orthogonalEdgeStyle;rounded=0;orthogonalLoop=1;jettySize=auto;html=1;entryX=1;entryY=0.5;entryDx=0;entryDy=0;endArrow=none;endFill=0;" parent="1" source="j6bOyk4aHJez_X9jCBpq-28" target="j6bOyk4aHJez_X9jCBpq-57" edge="1">
          <mxGeometry relative="1" as="geometry" />
        </mxCell>
        <mxCell id="j6bOyk4aHJez_X9jCBpq-28" value="Lord&lt;br&gt;Duncan Agna&lt;br&gt;550-571" style="rounded=1;whiteSpace=wrap;html=1;" parent="1" vertex="1">
          <mxGeometry x="845" y="1840" width="120" height="60" as="geometry" />
        </mxCell>
        <mxCell id="j6bOyk4aHJez_X9jCBpq-32" value="Queen Consort&lt;br&gt;Elizabeth Rose-Sprig&lt;br&gt;475-526" style="rounded=1;whiteSpace=wrap;html=1;" parent="1" vertex="1">
          <mxGeometry x="685" y="1540" width="120" height="60" as="geometry" />
        </mxCell>
        <mxCell id="j6bOyk4aHJez_X9jCBpq-36" value="486-506" style="text;html=1;strokeColor=none;fillColor=none;align=center;verticalAlign=middle;whiteSpace=wrap;rounded=0;" parent="1" vertex="1">
          <mxGeometry x="275" y="1600" width="50" height="20" as="geometry" />
        </mxCell>
        <mxCell id="j6bOyk4aHJez_X9jCBpq-37" value="506-508" style="text;html=1;strokeColor=none;fillColor=none;align=center;verticalAlign=middle;whiteSpace=wrap;rounded=0;" parent="1" vertex="1">
          <mxGeometry x="275" y="1700" width="50" height="20" as="geometry" />
        </mxCell>
        <mxCell id="j6bOyk4aHJez_X9jCBpq-38" value="508-513" style="text;html=1;strokeColor=none;fillColor=none;align=center;verticalAlign=middle;whiteSpace=wrap;rounded=0;" parent="1" vertex="1">
          <mxGeometry x="435" y="1700" width="50" height="20" as="geometry" />
        </mxCell>
        <mxCell id="j6bOyk4aHJez_X9jCBpq-39" value="Queen Consort&lt;br&gt;Juno Pavo-Ceva&lt;br&gt;518-571" style="rounded=1;whiteSpace=wrap;html=1;" parent="1" vertex="1">
          <mxGeometry x="365" y="1740" width="120" height="60" as="geometry" />
        </mxCell>
        <mxCell id="j6bOyk4aHJez_X9jCBpq-41" value="513-517" style="text;html=1;strokeColor=none;fillColor=none;align=center;verticalAlign=middle;whiteSpace=wrap;rounded=0;" parent="1" vertex="1">
          <mxGeometry x="595" y="1600" width="50" height="20" as="geometry" />
        </mxCell>
        <mxCell id="j6bOyk4aHJez_X9jCBpq-42" value="517-525" style="text;html=1;strokeColor=none;fillColor=none;align=center;verticalAlign=middle;whiteSpace=wrap;rounded=0;" parent="1" vertex="1">
          <mxGeometry x="600" y="1700" width="50" height="20" as="geometry" />
        </mxCell>
        <mxCell id="j6bOyk4aHJez_X9jCBpq-43" value="525-543" style="text;html=1;strokeColor=none;fillColor=none;align=center;verticalAlign=middle;whiteSpace=wrap;rounded=0;" parent="1" vertex="1">
          <mxGeometry x="595" y="1800" width="50" height="20" as="geometry" />
        </mxCell>
        <mxCell id="j6bOyk4aHJez_X9jCBpq-44" value="543-544" style="text;html=1;strokeColor=none;fillColor=none;align=center;verticalAlign=middle;whiteSpace=wrap;rounded=0;" parent="1" vertex="1">
          <mxGeometry x="595" y="1900" width="50" height="20" as="geometry" />
        </mxCell>
        <mxCell id="j6bOyk4aHJez_X9jCBpq-49" style="edgeStyle=orthogonalEdgeStyle;rounded=0;orthogonalLoop=1;jettySize=auto;html=1;entryX=1;entryY=0.5;entryDx=0;entryDy=0;endArrow=none;endFill=0;" parent="1" source="j6bOyk4aHJez_X9jCBpq-45" target="j6bOyk4aHJez_X9jCBpq-48" edge="1">
          <mxGeometry relative="1" as="geometry" />
        </mxCell>
        <mxCell id="j6bOyk4aHJez_X9jCBpq-51" style="edgeStyle=orthogonalEdgeStyle;rounded=0;orthogonalLoop=1;jettySize=auto;html=1;entryX=0.5;entryY=0;entryDx=0;entryDy=0;endArrow=none;endFill=0;" parent="1" source="j6bOyk4aHJez_X9jCBpq-45" target="j6bOyk4aHJez_X9jCBpq-50" edge="1">
          <mxGeometry relative="1" as="geometry">
            <Array as="points">
              <mxPoint x="745" y="1970" />
            </Array>
          </mxGeometry>
        </mxCell>
        <mxCell id="j6bOyk4aHJez_X9jCBpq-45" value="Georgina I Agna&lt;br&gt;&quot;The Guided&quot;&lt;br&gt;571-656" style="rounded=1;whiteSpace=wrap;html=1;fillColor=#d5e8d4;strokeColor=#82b366;" parent="1" vertex="1">
          <mxGeometry x="765" y="1940" width="120" height="60" as="geometry" />
        </mxCell>
        <mxCell id="j6bOyk4aHJez_X9jCBpq-47" value="544-567" style="text;html=1;strokeColor=none;fillColor=none;align=center;verticalAlign=middle;whiteSpace=wrap;rounded=0;" parent="1" vertex="1">
          <mxGeometry x="435" y="1900" width="50" height="20" as="geometry" />
        </mxCell>
        <mxCell id="j6bOyk4aHJez_X9jCBpq-48" value="Morgan I Lacerta&lt;br&gt;&quot;The Trecherous&quot;&lt;br&gt;569-654" style="rounded=1;whiteSpace=wrap;html=1;fillColor=#d5e8d4;strokeColor=#82b366;" parent="1" vertex="1">
          <mxGeometry x="605" y="1940" width="120" height="60" as="geometry" />
        </mxCell>
        <mxCell id="mQI-sssElqceSiJEg0yy-8" style="edgeStyle=orthogonalEdgeStyle;rounded=0;orthogonalLoop=1;jettySize=auto;html=1;entryX=0.5;entryY=0;entryDx=0;entryDy=0;endArrow=none;endFill=0;" parent="1" source="j6bOyk4aHJez_X9jCBpq-50" target="mQI-sssElqceSiJEg0yy-5" edge="1">
          <mxGeometry relative="1" as="geometry" />
        </mxCell>
        <mxCell id="mQI-sssElqceSiJEg0yy-9" style="edgeStyle=orthogonalEdgeStyle;rounded=0;orthogonalLoop=1;jettySize=auto;html=1;endArrow=none;endFill=0;" parent="1" source="j6bOyk4aHJez_X9jCBpq-50" target="mQI-sssElqceSiJEg0yy-6" edge="1">
          <mxGeometry relative="1" as="geometry">
            <Array as="points">
              <mxPoint x="745" y="2130" />
              <mxPoint x="985" y="2130" />
            </Array>
          </mxGeometry>
        </mxCell>
        <mxCell id="KLdIqzCfmj17ZEOP0-cl-2" style="edgeStyle=orthogonalEdgeStyle;rounded=0;orthogonalLoop=1;jettySize=auto;html=1;entryX=0.5;entryY=0;entryDx=0;entryDy=0;endArrow=none;endFill=0;" parent="1" source="j6bOyk4aHJez_X9jCBpq-50" target="KLdIqzCfmj17ZEOP0-cl-1" edge="1">
          <mxGeometry relative="1" as="geometry">
            <Array as="points">
              <mxPoint x="745" y="2130" />
              <mxPoint x="345" y="2130" />
            </Array>
          </mxGeometry>
        </mxCell>
        <mxCell id="j6bOyk4aHJez_X9jCBpq-50" value="Arthur I Lacerta&lt;br&gt;&quot;The Forsaken&quot;&lt;br&gt;600-676" style="rounded=1;whiteSpace=wrap;html=1;fillColor=#d5e8d4;strokeColor=#82b366;" parent="1" vertex="1">
          <mxGeometry x="685" y="2040" width="120" height="60" as="geometry" />
        </mxCell>
        <mxCell id="j6bOyk4aHJez_X9jCBpq-52" value="567-570" style="text;html=1;strokeColor=none;fillColor=none;align=center;verticalAlign=middle;whiteSpace=wrap;rounded=0;" parent="1" vertex="1">
          <mxGeometry x="755" y="1800" width="50" height="20" as="geometry" />
        </mxCell>
        <mxCell id="j6bOyk4aHJez_X9jCBpq-53" value="570-572" style="text;html=1;strokeColor=none;fillColor=none;align=center;verticalAlign=middle;whiteSpace=wrap;rounded=0;" parent="1" vertex="1">
          <mxGeometry x="915" y="1600" width="50" height="20" as="geometry" />
        </mxCell>
        <mxCell id="j6bOyk4aHJez_X9jCBpq-54" value="572-656" style="text;html=1;strokeColor=none;fillColor=none;align=center;verticalAlign=middle;whiteSpace=wrap;rounded=0;" parent="1" vertex="1">
          <mxGeometry x="835" y="2000" width="50" height="20" as="geometry" />
        </mxCell>
        <mxCell id="j6bOyk4aHJez_X9jCBpq-55" value="Regent: 517-518" style="text;html=1;strokeColor=none;fillColor=none;align=center;verticalAlign=middle;whiteSpace=wrap;rounded=0;fontSize=12;" parent="1" vertex="1">
          <mxGeometry x="695" y="1600" width="100" height="25" as="geometry" />
        </mxCell>
        <mxCell id="j6bOyk4aHJez_X9jCBpq-56" value="Regent: 543-556" style="text;html=1;strokeColor=none;fillColor=none;align=center;verticalAlign=middle;whiteSpace=wrap;rounded=0;fontSize=12;" parent="1" vertex="1">
          <mxGeometry x="375" y="1800" width="100" height="25" as="geometry" />
        </mxCell>
        <mxCell id="j6bOyk4aHJez_X9jCBpq-57" value="Lady Regent&lt;br&gt;Hannah Ciric&lt;br&gt;548-617" style="rounded=1;whiteSpace=wrap;html=1;" parent="1" vertex="1">
          <mxGeometry x="685" y="1840" width="120" height="60" as="geometry" />
        </mxCell>
        <mxCell id="j6bOyk4aHJez_X9jCBpq-59" value="Jure Uxoris:&lt;br&gt;597-654" style="text;html=1;strokeColor=none;fillColor=none;align=center;verticalAlign=middle;whiteSpace=wrap;rounded=0;" parent="1" vertex="1">
          <mxGeometry x="625" y="2000" width="80" height="30" as="geometry" />
        </mxCell>
        <mxCell id="j6bOyk4aHJez_X9jCBpq-60" value="656-676" style="text;html=1;strokeColor=none;fillColor=none;align=center;verticalAlign=middle;whiteSpace=wrap;rounded=0;" parent="1" vertex="1">
          <mxGeometry x="755" y="2100" width="50" height="20" as="geometry" />
        </mxCell>
        <mxCell id="mQI-sssElqceSiJEg0yy-1" value="Regent:&lt;br&gt;572-591" style="text;html=1;strokeColor=none;fillColor=none;align=center;verticalAlign=middle;whiteSpace=wrap;rounded=0;fontSize=12;" parent="1" vertex="1">
          <mxGeometry x="715" y="1900" width="60" height="30" as="geometry" />
        </mxCell>
        <mxCell id="mQI-sssElqceSiJEg0yy-2" value="" style="rounded=1;whiteSpace=wrap;html=1;fillColor=#d5e8d4;strokeColor=#82b366;" parent="1" vertex="1">
          <mxGeometry x="1360" y="4560" width="120" height="60" as="geometry" />
        </mxCell>
        <mxCell id="mQI-sssElqceSiJEg0yy-10" style="edgeStyle=orthogonalEdgeStyle;rounded=0;orthogonalLoop=1;jettySize=auto;html=1;endArrow=none;endFill=0;entryX=1;entryY=0.5;entryDx=0;entryDy=0;" parent="1" source="mQI-sssElqceSiJEg0yy-5" target="Yns52e4Zez9bQJnsiGdB-3" edge="1">
          <mxGeometry relative="1" as="geometry">
            <mxPoint x="565" y="2190" as="targetPoint" />
          </mxGeometry>
        </mxCell>
        <mxCell id="mQI-sssElqceSiJEg0yy-16" style="edgeStyle=orthogonalEdgeStyle;rounded=0;orthogonalLoop=1;jettySize=auto;html=1;entryX=0.5;entryY=0;entryDx=0;entryDy=0;endArrow=none;endFill=0;" parent="1" source="mQI-sssElqceSiJEg0yy-5" target="mQI-sssElqceSiJEg0yy-14" edge="1">
          <mxGeometry relative="1" as="geometry">
            <Array as="points">
              <mxPoint x="585" y="2190" />
            </Array>
          </mxGeometry>
        </mxCell>
        <mxCell id="mQI-sssElqceSiJEg0yy-5" value="Morgana I Lacerta&lt;br&gt;&quot;The Faye|Traitor&quot;&lt;br&gt;627-714" style="rounded=1;whiteSpace=wrap;html=1;fillColor=#EBEBEB;strokeColor=#666666;fontColor=#333333;" parent="1" vertex="1">
          <mxGeometry x="605" y="2160" width="120" height="60" as="geometry" />
        </mxCell>
        <mxCell id="mQI-sssElqceSiJEg0yy-17" style="edgeStyle=orthogonalEdgeStyle;rounded=0;orthogonalLoop=1;jettySize=auto;html=1;entryX=0.5;entryY=0;entryDx=0;entryDy=0;endArrow=none;endFill=0;" parent="1" source="mQI-sssElqceSiJEg0yy-6" target="mQI-sssElqceSiJEg0yy-15" edge="1">
          <mxGeometry relative="1" as="geometry">
            <Array as="points">
              <mxPoint x="905" y="2190" />
            </Array>
          </mxGeometry>
        </mxCell>
        <mxCell id="mQI-sssElqceSiJEg0yy-6" value="Elaine I Lacerta&lt;br&gt;&quot;Liberator|Betrayer&quot;&lt;br&gt;630-715" style="rounded=1;whiteSpace=wrap;html=1;fillColor=#dae8fc;strokeColor=#6c8ebf;" parent="1" vertex="1">
          <mxGeometry x="925" y="2160" width="120" height="60" as="geometry" />
        </mxCell>
        <mxCell id="kEfupODciWh_bFiOn-4N-6" value="" style="edgeStyle=orthogonalEdgeStyle;rounded=0;orthogonalLoop=1;jettySize=auto;html=1;endArrow=none;endFill=0;" parent="1" source="mQI-sssElqceSiJEg0yy-7" target="kEfupODciWh_bFiOn-4N-5" edge="1">
          <mxGeometry relative="1" as="geometry">
            <Array as="points">
              <mxPoint x="905" y="2190" />
              <mxPoint x="905" y="2240" />
              <mxPoint x="1225" y="2240" />
            </Array>
          </mxGeometry>
        </mxCell>
        <mxCell id="mQI-sssElqceSiJEg0yy-7" value="Laurence I Baun&lt;br&gt;&quot;Commander&quot;&lt;br&gt;626-712" style="rounded=1;whiteSpace=wrap;html=1;fillColor=#dae8fc;strokeColor=#6c8ebf;" parent="1" vertex="1">
          <mxGeometry x="765" y="2160" width="120" height="60" as="geometry" />
        </mxCell>
        <mxCell id="mQI-sssElqceSiJEg0yy-12" value="North Sulyion" style="text;html=1;strokeColor=none;fillColor=none;align=center;verticalAlign=middle;whiteSpace=wrap;rounded=0;" parent="1" vertex="1">
          <mxGeometry x="615" y="2140" width="110" height="20" as="geometry" />
        </mxCell>
        <mxCell id="mQI-sssElqceSiJEg0yy-13" value="South Sulyion" style="text;html=1;strokeColor=none;fillColor=none;align=center;verticalAlign=middle;whiteSpace=wrap;rounded=0;" parent="1" vertex="1">
          <mxGeometry x="935" y="2140" width="110" height="20" as="geometry" />
        </mxCell>
        <mxCell id="mQI-sssElqceSiJEg0yy-22" style="edgeStyle=orthogonalEdgeStyle;rounded=0;orthogonalLoop=1;jettySize=auto;html=1;entryX=0.5;entryY=0;entryDx=0;entryDy=0;endArrow=none;endFill=0;" parent="1" source="mQI-sssElqceSiJEg0yy-14" target="mQI-sssElqceSiJEg0yy-21" edge="1">
          <mxGeometry relative="1" as="geometry" />
        </mxCell>
        <mxCell id="KLdIqzCfmj17ZEOP0-cl-6" style="edgeStyle=orthogonalEdgeStyle;rounded=0;orthogonalLoop=1;jettySize=auto;html=1;endArrow=none;endFill=0;" parent="1" source="mQI-sssElqceSiJEg0yy-14" target="KLdIqzCfmj17ZEOP0-cl-3" edge="1">
          <mxGeometry relative="1" as="geometry" />
        </mxCell>
        <mxCell id="mQI-sssElqceSiJEg0yy-14" value="Morgan II Hwyna&lt;br&gt;&quot;The Fortifier&quot;&lt;br&gt;654-723" style="rounded=1;whiteSpace=wrap;html=1;fillColor=#EBEBEB;strokeColor=#666666;fontColor=#333333;" parent="1" vertex="1">
          <mxGeometry x="525" y="2260" width="120" height="60" as="geometry" />
        </mxCell>
        <mxCell id="Y0vlOXhMaD4Kxx2ORCl1-8" value="" style="edgeStyle=orthogonalEdgeStyle;rounded=0;orthogonalLoop=1;jettySize=auto;html=1;endArrow=none;endFill=0;" parent="1" source="mQI-sssElqceSiJEg0yy-15" target="Y0vlOXhMaD4Kxx2ORCl1-6" edge="1">
          <mxGeometry relative="1" as="geometry" />
        </mxCell>
        <mxCell id="Y0vlOXhMaD4Kxx2ORCl1-11" style="edgeStyle=orthogonalEdgeStyle;rounded=0;orthogonalLoop=1;jettySize=auto;html=1;exitX=1;exitY=0.5;exitDx=0;exitDy=0;entryX=0.5;entryY=0;entryDx=0;entryDy=0;endArrow=none;endFill=0;" parent="1" source="mQI-sssElqceSiJEg0yy-15" target="kEfupODciWh_bFiOn-4N-7" edge="1">
          <mxGeometry relative="1" as="geometry" />
        </mxCell>
        <mxCell id="mQI-sssElqceSiJEg0yy-15" value="Henry II Baun&lt;br&gt;&quot;The Regresser&quot;&lt;br&gt;658-721" style="rounded=1;whiteSpace=wrap;html=1;fillColor=#dae8fc;strokeColor=#6c8ebf;" parent="1" vertex="1">
          <mxGeometry x="845" y="2260" width="120" height="60" as="geometry" />
        </mxCell>
        <mxCell id="mQI-sssElqceSiJEg0yy-18" value="&lt;br&gt;&lt;br&gt;" style="rounded=1;whiteSpace=wrap;html=1;fillColor=#EBEBEB;strokeColor=#666666;fontColor=#333333;" parent="1" vertex="1">
          <mxGeometry x="1360" y="4480" width="120" height="60" as="geometry" />
        </mxCell>
        <mxCell id="mQI-sssElqceSiJEg0yy-19" value="Prince Consort&lt;br&gt;Elliot Tari&lt;br&gt;690-758" style="rounded=1;whiteSpace=wrap;html=1;" parent="1" vertex="1">
          <mxGeometry x="285" y="2360" width="120" height="60" as="geometry" />
        </mxCell>
        <mxCell id="mQI-sssElqceSiJEg0yy-20" value="" style="endArrow=none;html=1;rounded=0;exitX=1;exitY=0.5;exitDx=0;exitDy=0;entryX=0;entryY=0.5;entryDx=0;entryDy=0;" parent="1" source="mQI-sssElqceSiJEg0yy-19" target="mQI-sssElqceSiJEg0yy-21" edge="1">
          <mxGeometry width="50" height="50" relative="1" as="geometry">
            <mxPoint x="505" y="2320" as="sourcePoint" />
            <mxPoint x="445" y="2360" as="targetPoint" />
          </mxGeometry>
        </mxCell>
        <mxCell id="mQI-sssElqceSiJEg0yy-24" style="edgeStyle=orthogonalEdgeStyle;rounded=0;orthogonalLoop=1;jettySize=auto;html=1;entryX=0.5;entryY=0;entryDx=0;entryDy=0;endArrow=none;endFill=0;" parent="1" source="mQI-sssElqceSiJEg0yy-21" target="mQI-sssElqceSiJEg0yy-23" edge="1">
          <mxGeometry relative="1" as="geometry">
            <Array as="points">
              <mxPoint x="425" y="2390" />
            </Array>
          </mxGeometry>
        </mxCell>
        <mxCell id="mQI-sssElqceSiJEg0yy-21" value="Lilianne I Hwyna&lt;br&gt;&quot;The Esteemed&quot;&lt;br&gt;688-748" style="rounded=1;whiteSpace=wrap;html=1;fillColor=#EBEBEB;strokeColor=#666666;fontColor=#333333;" parent="1" vertex="1">
          <mxGeometry x="445" y="2360" width="120" height="60" as="geometry" />
        </mxCell>
        <mxCell id="vmewDD1x_ZXPCddzo8eD-10" style="edgeStyle=orthogonalEdgeStyle;rounded=0;orthogonalLoop=1;jettySize=auto;html=1;entryX=0.5;entryY=0;entryDx=0;entryDy=0;endArrow=none;endFill=0;" parent="1" source="mQI-sssElqceSiJEg0yy-23" target="KLdIqzCfmj17ZEOP0-cl-8" edge="1">
          <mxGeometry relative="1" as="geometry" />
        </mxCell>
        <mxCell id="mQI-sssElqceSiJEg0yy-23" value="Leon I Tari&lt;br&gt;&quot;The Lion&quot;&lt;br&gt;710-760" style="rounded=1;whiteSpace=wrap;html=1;fillColor=#EBEBEB;strokeColor=#666666;fontColor=#333333;" parent="1" vertex="1">
          <mxGeometry x="365" y="2460" width="120" height="60" as="geometry" />
        </mxCell>
        <mxCell id="kEfupODciWh_bFiOn-4N-1" value="Queen Consort&lt;br&gt;Elodia Delon&lt;br&gt;498-472" style="rounded=1;whiteSpace=wrap;html=1;" parent="1" vertex="1">
          <mxGeometry x="685" y="1640" width="120" height="60" as="geometry" />
        </mxCell>
        <mxCell id="kEfupODciWh_bFiOn-4N-3" value="" style="endArrow=none;html=1;rounded=0;entryX=0;entryY=0.5;entryDx=0;entryDy=0;exitX=1;exitY=0.5;exitDx=0;exitDy=0;" parent="1" source="j6bOyk4aHJez_X9jCBpq-16" target="kEfupODciWh_bFiOn-4N-1" edge="1">
          <mxGeometry width="50" height="50" relative="1" as="geometry">
            <mxPoint x="695" y="1750" as="sourcePoint" />
            <mxPoint x="745" y="1700" as="targetPoint" />
          </mxGeometry>
        </mxCell>
        <mxCell id="kEfupODciWh_bFiOn-4N-4" value="Regent:&amp;nbsp;525-537" style="text;html=1;align=center;verticalAlign=middle;resizable=0;points=[];autosize=1;strokeColor=none;fillColor=none;" parent="1" vertex="1">
          <mxGeometry x="690" y="1695" width="110" height="30" as="geometry" />
        </mxCell>
        <mxCell id="Y0vlOXhMaD4Kxx2ORCl1-26" value="" style="edgeStyle=orthogonalEdgeStyle;rounded=0;orthogonalLoop=1;jettySize=auto;html=1;endArrow=none;endFill=0;" parent="1" source="kEfupODciWh_bFiOn-4N-5" target="Y0vlOXhMaD4Kxx2ORCl1-25" edge="1">
          <mxGeometry relative="1" as="geometry" />
        </mxCell>
        <mxCell id="kEfupODciWh_bFiOn-4N-5" value="Prince&lt;br&gt;Issac Baun&lt;br&gt;667-722" style="rounded=1;whiteSpace=wrap;html=1;" parent="1" vertex="1">
          <mxGeometry x="1165" y="2260" width="120" height="60" as="geometry" />
        </mxCell>
        <mxCell id="kEfupODciWh_bFiOn-4N-11" value="" style="edgeStyle=orthogonalEdgeStyle;rounded=0;orthogonalLoop=1;jettySize=auto;html=1;endArrow=none;endFill=0;" parent="1" source="kEfupODciWh_bFiOn-4N-7" target="kEfupODciWh_bFiOn-4N-10" edge="1">
          <mxGeometry relative="1" as="geometry" />
        </mxCell>
        <mxCell id="Y0vlOXhMaD4Kxx2ORCl1-22" style="edgeStyle=orthogonalEdgeStyle;rounded=0;orthogonalLoop=1;jettySize=auto;html=1;exitX=0.5;exitY=1;exitDx=0;exitDy=0;entryX=0.5;entryY=0;entryDx=0;entryDy=0;endArrow=none;endFill=0;" parent="1" source="kEfupODciWh_bFiOn-4N-7" target="Y0vlOXhMaD4Kxx2ORCl1-15" edge="1">
          <mxGeometry relative="1" as="geometry" />
        </mxCell>
        <mxCell id="kEfupODciWh_bFiOn-4N-7" value="Hugo I Baun&lt;br&gt;&quot;The Southern King&quot;&lt;br&gt;719-785" style="rounded=1;whiteSpace=wrap;html=1;fillColor=#dae8fc;strokeColor=#6c8ebf;" parent="1" vertex="1">
          <mxGeometry x="925" y="2360" width="120" height="60" as="geometry" />
        </mxCell>
        <mxCell id="Y0vlOXhMaD4Kxx2ORCl1-24" value="" style="edgeStyle=orthogonalEdgeStyle;rounded=0;orthogonalLoop=1;jettySize=auto;html=1;endArrow=none;endFill=0;" parent="1" source="kEfupODciWh_bFiOn-4N-10" target="Y0vlOXhMaD4Kxx2ORCl1-23" edge="1">
          <mxGeometry relative="1" as="geometry" />
        </mxCell>
        <mxCell id="kEfupODciWh_bFiOn-4N-10" value="John I Baun&lt;br&gt;&quot;The First King&quot;&lt;br&gt;738-797" style="rounded=1;whiteSpace=wrap;html=1;fillColor=#dae8fc;strokeColor=#6c8ebf;" parent="1" vertex="1">
          <mxGeometry x="925" y="2460" width="120" height="60" as="geometry" />
        </mxCell>
        <mxCell id="Y0vlOXhMaD4Kxx2ORCl1-21" value="" style="edgeStyle=orthogonalEdgeStyle;rounded=0;orthogonalLoop=1;jettySize=auto;html=1;endArrow=none;endFill=0;" parent="1" source="kEfupODciWh_bFiOn-4N-12" target="Y0vlOXhMaD4Kxx2ORCl1-16" edge="1">
          <mxGeometry relative="1" as="geometry">
            <Array as="points">
              <mxPoint x="1305" y="2490" />
            </Array>
          </mxGeometry>
        </mxCell>
        <mxCell id="kEfupODciWh_bFiOn-4N-12" value="Lauren I Baun&lt;br&gt;&quot;Forgiver&quot;&lt;br&gt;731-809" style="rounded=1;whiteSpace=wrap;html=1;fillColor=#dae8fc;strokeColor=#6c8ebf;" parent="1" vertex="1">
          <mxGeometry x="1165" y="2460" width="120" height="60" as="geometry" />
        </mxCell>
        <mxCell id="kEfupODciWh_bFiOn-4N-16" value="" style="edgeStyle=orthogonalEdgeStyle;rounded=0;orthogonalLoop=1;jettySize=auto;html=1;endArrow=none;endFill=0;" parent="1" source="kEfupODciWh_bFiOn-4N-13" target="kEfupODciWh_bFiOn-4N-12" edge="1">
          <mxGeometry relative="1" as="geometry" />
        </mxCell>
        <mxCell id="kEfupODciWh_bFiOn-4N-13" value="Lewis I Malum&lt;br&gt;&quot;The Deceptive&quot;&lt;br&gt;729-815" style="rounded=1;whiteSpace=wrap;html=1;fillColor=#dae8fc;strokeColor=#6c8ebf;" parent="1" vertex="1">
          <mxGeometry x="1325" y="2460" width="120" height="60" as="geometry" />
        </mxCell>
        <mxCell id="KLdIqzCfmj17ZEOP0-cl-1" value="Crown Prince&lt;br&gt;Mordred Lacerta&lt;br&gt;625-670" style="rounded=1;whiteSpace=wrap;html=1;" parent="1" vertex="1">
          <mxGeometry x="285" y="2160" width="120" height="60" as="geometry" />
        </mxCell>
        <mxCell id="KLdIqzCfmj17ZEOP0-cl-5" style="edgeStyle=orthogonalEdgeStyle;rounded=0;orthogonalLoop=1;jettySize=auto;html=1;entryX=0;entryY=0.5;entryDx=0;entryDy=0;endArrow=none;endFill=0;" parent="1" source="KLdIqzCfmj17ZEOP0-cl-3" target="KLdIqzCfmj17ZEOP0-cl-4" edge="1">
          <mxGeometry relative="1" as="geometry" />
        </mxCell>
        <mxCell id="KLdIqzCfmj17ZEOP0-cl-3" value="Crown Prince&lt;br&gt;Erien Hwyna&lt;br&gt;691-721" style="rounded=1;whiteSpace=wrap;html=1;" parent="1" vertex="1">
          <mxGeometry x="605" y="2360" width="120" height="60" as="geometry" />
        </mxCell>
        <mxCell id="KLdIqzCfmj17ZEOP0-cl-4" value="Crown Princess&lt;br&gt;Alexandra Baun&lt;br&gt;689-721" style="rounded=1;whiteSpace=wrap;html=1;" parent="1" vertex="1">
          <mxGeometry x="765" y="2360" width="120" height="60" as="geometry" />
        </mxCell>
        <mxCell id="vmewDD1x_ZXPCddzo8eD-8" style="edgeStyle=orthogonalEdgeStyle;rounded=0;orthogonalLoop=1;jettySize=auto;html=1;entryX=0;entryY=0.5;entryDx=0;entryDy=0;endArrow=none;endFill=0;" parent="1" source="KLdIqzCfmj17ZEOP0-cl-8" target="vmewDD1x_ZXPCddzo8eD-6" edge="1">
          <mxGeometry relative="1" as="geometry" />
        </mxCell>
        <mxCell id="vmewDD1x_ZXPCddzo8eD-9" style="edgeStyle=orthogonalEdgeStyle;rounded=0;orthogonalLoop=1;jettySize=auto;html=1;entryX=0.5;entryY=0;entryDx=0;entryDy=0;endArrow=none;endFill=0;" parent="1" source="KLdIqzCfmj17ZEOP0-cl-8" target="KLdIqzCfmj17ZEOP0-cl-9" edge="1">
          <mxGeometry relative="1" as="geometry">
            <Array as="points">
              <mxPoint x="505" y="2590" />
            </Array>
          </mxGeometry>
        </mxCell>
        <mxCell id="vmewDD1x_ZXPCddzo8eD-14" style="edgeStyle=orthogonalEdgeStyle;rounded=0;orthogonalLoop=1;jettySize=auto;html=1;endArrow=none;endFill=0;" parent="1" source="KLdIqzCfmj17ZEOP0-cl-8" target="vmewDD1x_ZXPCddzo8eD-13" edge="1">
          <mxGeometry relative="1" as="geometry" />
        </mxCell>
        <mxCell id="vmewDD1x_ZXPCddzo8eD-16" style="edgeStyle=orthogonalEdgeStyle;rounded=0;orthogonalLoop=1;jettySize=auto;html=1;entryX=0.5;entryY=0;entryDx=0;entryDy=0;endArrow=none;endFill=0;" parent="1" source="KLdIqzCfmj17ZEOP0-cl-8" target="vmewDD1x_ZXPCddzo8eD-15" edge="1">
          <mxGeometry relative="1" as="geometry">
            <Array as="points">
              <mxPoint x="345" y="2590" />
            </Array>
          </mxGeometry>
        </mxCell>
        <mxCell id="KLdIqzCfmj17ZEOP0-cl-8" value="Leon II Tari&lt;br&gt;&quot;The Wisened&quot;&lt;br&gt;731-800" style="rounded=1;whiteSpace=wrap;html=1;fillColor=#EBEBEB;strokeColor=#666666;fontColor=#333333;" parent="1" vertex="1">
          <mxGeometry x="365" y="2560" width="120" height="60" as="geometry" />
        </mxCell>
        <mxCell id="vmewDD1x_ZXPCddzo8eD-7" style="edgeStyle=orthogonalEdgeStyle;rounded=0;orthogonalLoop=1;jettySize=auto;html=1;entryX=0.5;entryY=0;entryDx=0;entryDy=0;endArrow=none;endFill=0;" parent="1" source="KLdIqzCfmj17ZEOP0-cl-9" target="KLdIqzCfmj17ZEOP0-cl-10" edge="1">
          <mxGeometry relative="1" as="geometry" />
        </mxCell>
        <mxCell id="KLdIqzCfmj17ZEOP0-cl-9" value="Leon III Tari&lt;br&gt;&quot;The Young&quot;&lt;br&gt;785-846" style="rounded=1;whiteSpace=wrap;html=1;fillColor=#EBEBEB;strokeColor=#666666;fontColor=#333333;" parent="1" vertex="1">
          <mxGeometry x="445" y="2660" width="120" height="60" as="geometry" />
        </mxCell>
        <mxCell id="KLdIqzCfmj17ZEOP0-cl-12" style="edgeStyle=orthogonalEdgeStyle;rounded=0;orthogonalLoop=1;jettySize=auto;html=1;entryX=0;entryY=0.5;entryDx=0;entryDy=0;endArrow=none;endFill=0;" parent="1" source="KLdIqzCfmj17ZEOP0-cl-10" target="KLdIqzCfmj17ZEOP0-cl-11" edge="1">
          <mxGeometry relative="1" as="geometry" />
        </mxCell>
        <mxCell id="EGhb51R7LbqFZlrQQi_G-3" style="edgeStyle=orthogonalEdgeStyle;rounded=0;orthogonalLoop=1;jettySize=auto;html=1;entryX=0.5;entryY=0;entryDx=0;entryDy=0;endArrow=none;endFill=0;" parent="1" source="KLdIqzCfmj17ZEOP0-cl-10" target="EGhb51R7LbqFZlrQQi_G-2" edge="1">
          <mxGeometry relative="1" as="geometry">
            <Array as="points">
              <mxPoint x="625" y="2790" />
            </Array>
          </mxGeometry>
        </mxCell>
        <mxCell id="KLdIqzCfmj17ZEOP0-cl-10" value="Leon IV/I Tari&lt;br&gt;&quot;The Ruler&quot;&lt;br&gt;815-885" style="rounded=1;whiteSpace=wrap;html=1;fillColor=#d5e8d4;strokeColor=#82b366;" parent="1" vertex="1">
          <mxGeometry x="445" y="2760" width="120" height="60" as="geometry" />
        </mxCell>
        <mxCell id="KLdIqzCfmj17ZEOP0-cl-11" value="Olivia I Kagu&lt;br&gt;&quot;The Outcast&quot;&lt;br&gt;814-886" style="rounded=1;whiteSpace=wrap;html=1;fillColor=#dae8fc;strokeColor=#6c8ebf;" parent="1" vertex="1">
          <mxGeometry x="685" y="2760" width="120" height="60" as="geometry" />
        </mxCell>
        <mxCell id="Y0vlOXhMaD4Kxx2ORCl1-10" value="" style="edgeStyle=orthogonalEdgeStyle;rounded=0;orthogonalLoop=1;jettySize=auto;html=1;endArrow=none;endFill=0;" parent="1" source="Y0vlOXhMaD4Kxx2ORCl1-3" target="mQI-sssElqceSiJEg0yy-15" edge="1">
          <mxGeometry relative="1" as="geometry" />
        </mxCell>
        <mxCell id="Y0vlOXhMaD4Kxx2ORCl1-3" value="Queen Consort&lt;br&gt;Georgia Ertia&lt;br&gt;691-762" style="rounded=1;whiteSpace=wrap;html=1;" parent="1" vertex="1">
          <mxGeometry x="1005" y="2260" width="120" height="60" as="geometry" />
        </mxCell>
        <mxCell id="Y0vlOXhMaD4Kxx2ORCl1-7" value="" style="edgeStyle=orthogonalEdgeStyle;rounded=0;orthogonalLoop=1;jettySize=auto;html=1;endArrow=none;endFill=0;" parent="1" source="Y0vlOXhMaD4Kxx2ORCl1-6" target="KLdIqzCfmj17ZEOP0-cl-4" edge="1">
          <mxGeometry relative="1" as="geometry">
            <Array as="points">
              <mxPoint x="825" y="2290" />
            </Array>
          </mxGeometry>
        </mxCell>
        <mxCell id="Y0vlOXhMaD4Kxx2ORCl1-6" value="Queen Consort&lt;br&gt;Jane Ertia&lt;br&gt;665-718" style="rounded=1;whiteSpace=wrap;html=1;" parent="1" vertex="1">
          <mxGeometry x="685" y="2260" width="120" height="60" as="geometry" />
        </mxCell>
        <mxCell id="Y0vlOXhMaD4Kxx2ORCl1-12" value="Regent:&lt;br&gt;721-739" style="text;html=1;align=center;verticalAlign=middle;resizable=0;points=[];autosize=1;strokeColor=none;fillColor=none;" parent="1" vertex="1">
          <mxGeometry x="1030" y="2320" width="70" height="40" as="geometry" />
        </mxCell>
        <mxCell id="Y0vlOXhMaD4Kxx2ORCl1-13" value="679-715" style="text;html=1;align=center;verticalAlign=middle;resizable=0;points=[];autosize=1;strokeColor=none;fillColor=none;" parent="1" vertex="1">
          <mxGeometry x="975" y="2215" width="70" height="30" as="geometry" />
        </mxCell>
        <mxCell id="Y0vlOXhMaD4Kxx2ORCl1-14" value="715-721" style="text;html=1;align=center;verticalAlign=middle;resizable=0;points=[];autosize=1;strokeColor=none;fillColor=none;" parent="1" vertex="1">
          <mxGeometry x="895" y="2314" width="70" height="30" as="geometry" />
        </mxCell>
        <mxCell id="Y0vlOXhMaD4Kxx2ORCl1-28" value="" style="edgeStyle=orthogonalEdgeStyle;rounded=0;orthogonalLoop=1;jettySize=auto;html=1;endArrow=none;endFill=0;" parent="1" source="Y0vlOXhMaD4Kxx2ORCl1-15" target="Y0vlOXhMaD4Kxx2ORCl1-20" edge="1">
          <mxGeometry relative="1" as="geometry" />
        </mxCell>
        <mxCell id="Y0vlOXhMaD4Kxx2ORCl1-15" value="Crown Prince&lt;br&gt;Victor Baun&lt;br&gt;737-794" style="rounded=1;whiteSpace=wrap;html=1;" parent="1" vertex="1">
          <mxGeometry x="765" y="2460" width="120" height="60" as="geometry" />
        </mxCell>
        <mxCell id="Y0vlOXhMaD4Kxx2ORCl1-31" style="edgeStyle=orthogonalEdgeStyle;rounded=0;orthogonalLoop=1;jettySize=auto;html=1;exitX=1;exitY=0.5;exitDx=0;exitDy=0;entryX=0.5;entryY=0;entryDx=0;entryDy=0;endArrow=none;endFill=0;" parent="1" source="Y0vlOXhMaD4Kxx2ORCl1-16" target="Y0vlOXhMaD4Kxx2ORCl1-30" edge="1">
          <mxGeometry relative="1" as="geometry">
            <Array as="points">
              <mxPoint x="1225" y="2590" />
              <mxPoint x="1225" y="2640" />
              <mxPoint x="1305" y="2640" />
            </Array>
          </mxGeometry>
        </mxCell>
        <mxCell id="Y0vlOXhMaD4Kxx2ORCl1-16" value="Duncan IV Malum&lt;br&gt;&quot;The Tired&quot;&lt;br&gt;758-813" style="rounded=1;whiteSpace=wrap;html=1;fillColor=#dae8fc;strokeColor=#6c8ebf;" parent="1" vertex="1">
          <mxGeometry x="1245" y="2560" width="120" height="60" as="geometry" />
        </mxCell>
        <mxCell id="Y0vlOXhMaD4Kxx2ORCl1-18" value="" style="edgeStyle=orthogonalEdgeStyle;rounded=0;orthogonalLoop=1;jettySize=auto;html=1;endArrow=none;endFill=0;" parent="1" source="Y0vlOXhMaD4Kxx2ORCl1-17" target="Y0vlOXhMaD4Kxx2ORCl1-16" edge="1">
          <mxGeometry relative="1" as="geometry" />
        </mxCell>
        <mxCell id="Y0vlOXhMaD4Kxx2ORCl1-17" value="Luna I Cetus&lt;br&gt;&quot;The Wife&quot;&lt;br&gt;762-841" style="rounded=1;whiteSpace=wrap;html=1;fillColor=#dae8fc;strokeColor=#6c8ebf;" parent="1" vertex="1">
          <mxGeometry x="1085" y="2560" width="120" height="60" as="geometry" />
        </mxCell>
        <mxCell id="Y0vlOXhMaD4Kxx2ORCl1-19" value="Lady&lt;br&gt;Lilianne Baun&lt;br&gt;781-820" style="rounded=1;whiteSpace=wrap;html=1;" parent="1" vertex="1">
          <mxGeometry x="765" y="2660" width="120" height="60" as="geometry" />
        </mxCell>
        <mxCell id="Y0vlOXhMaD4Kxx2ORCl1-29" value="" style="edgeStyle=orthogonalEdgeStyle;rounded=0;orthogonalLoop=1;jettySize=auto;html=1;endArrow=none;endFill=0;" parent="1" source="Y0vlOXhMaD4Kxx2ORCl1-20" target="Y0vlOXhMaD4Kxx2ORCl1-19" edge="1">
          <mxGeometry relative="1" as="geometry" />
        </mxCell>
        <mxCell id="Y0vlOXhMaD4Kxx2ORCl1-20" value="Morgan Baun&lt;br&gt;763-801" style="rounded=1;whiteSpace=wrap;html=1;" parent="1" vertex="1">
          <mxGeometry x="765" y="2560" width="120" height="60" as="geometry" />
        </mxCell>
        <mxCell id="Y0vlOXhMaD4Kxx2ORCl1-23" value="Sophie II Baun&lt;br&gt;&quot;The Desirer&quot;&lt;br&gt;764-802" style="rounded=1;whiteSpace=wrap;html=1;fillColor=#dae8fc;strokeColor=#6c8ebf;" parent="1" vertex="1">
          <mxGeometry x="925" y="2560" width="120" height="60" as="geometry" />
        </mxCell>
        <mxCell id="Y0vlOXhMaD4Kxx2ORCl1-27" value="" style="edgeStyle=orthogonalEdgeStyle;rounded=0;orthogonalLoop=1;jettySize=auto;html=1;endArrow=none;endFill=0;" parent="1" source="Y0vlOXhMaD4Kxx2ORCl1-25" target="kEfupODciWh_bFiOn-4N-12" edge="1">
          <mxGeometry relative="1" as="geometry" />
        </mxCell>
        <mxCell id="Y0vlOXhMaD4Kxx2ORCl1-25" value="Prince&lt;br&gt;Pavo Baun&lt;br&gt;689-782" style="rounded=1;whiteSpace=wrap;html=1;" parent="1" vertex="1">
          <mxGeometry x="1165" y="2360" width="120" height="60" as="geometry" />
        </mxCell>
        <mxCell id="Y0vlOXhMaD4Kxx2ORCl1-34" value="" style="edgeStyle=orthogonalEdgeStyle;rounded=0;orthogonalLoop=1;jettySize=auto;html=1;endArrow=none;endFill=0;" parent="1" source="Y0vlOXhMaD4Kxx2ORCl1-30" target="Y0vlOXhMaD4Kxx2ORCl1-32" edge="1">
          <mxGeometry relative="1" as="geometry" />
        </mxCell>
        <mxCell id="Y0vlOXhMaD4Kxx2ORCl1-30" value="Louise I Malum&lt;br&gt;&quot;The Expectant&quot;&lt;br&gt;783-836" style="rounded=1;whiteSpace=wrap;html=1;fillColor=#dae8fc;strokeColor=#6c8ebf;" parent="1" vertex="1">
          <mxGeometry x="1245" y="2660" width="120" height="60" as="geometry" />
        </mxCell>
        <mxCell id="Y0vlOXhMaD4Kxx2ORCl1-36" value="" style="edgeStyle=orthogonalEdgeStyle;rounded=0;orthogonalLoop=1;jettySize=auto;html=1;endArrow=none;endFill=0;" parent="1" source="Y0vlOXhMaD4Kxx2ORCl1-32" target="Y0vlOXhMaD4Kxx2ORCl1-35" edge="1">
          <mxGeometry relative="1" as="geometry">
            <Array as="points">
              <mxPoint x="1065" y="2690" />
            </Array>
          </mxGeometry>
        </mxCell>
        <mxCell id="Y0vlOXhMaD4Kxx2ORCl1-32" value="Valentine I Ekster&lt;br&gt;&quot;The Rebel&quot;&lt;br&gt;784-872" style="rounded=1;whiteSpace=wrap;html=1;fillColor=#dae8fc;strokeColor=#6c8ebf;" parent="1" vertex="1">
          <mxGeometry x="1085" y="2660" width="120" height="60" as="geometry" />
        </mxCell>
        <mxCell id="Y0vlOXhMaD4Kxx2ORCl1-35" value="Claimant&lt;br&gt;Louise Ekster&lt;br&gt;838-907" style="rounded=1;whiteSpace=wrap;html=1;gradientDirection=radial;" parent="1" vertex="1">
          <mxGeometry x="1005" y="2760" width="120" height="60" as="geometry" />
        </mxCell>
        <mxCell id="Y0vlOXhMaD4Kxx2ORCl1-40" value="" style="edgeStyle=orthogonalEdgeStyle;rounded=0;orthogonalLoop=1;jettySize=auto;html=1;endArrow=none;endFill=0;" parent="1" source="Y0vlOXhMaD4Kxx2ORCl1-37" target="Y0vlOXhMaD4Kxx2ORCl1-32" edge="1">
          <mxGeometry relative="1" as="geometry" />
        </mxCell>
        <mxCell id="Y0vlOXhMaD4Kxx2ORCl1-37" value="Elaine Gog&lt;br&gt;800-867" style="rounded=1;whiteSpace=wrap;html=1;" parent="1" vertex="1">
          <mxGeometry x="925" y="2660" width="120" height="60" as="geometry" />
        </mxCell>
        <mxCell id="Y0vlOXhMaD4Kxx2ORCl1-39" value="" style="edgeStyle=orthogonalEdgeStyle;rounded=0;orthogonalLoop=1;jettySize=auto;html=1;endArrow=none;endFill=0;" parent="1" source="Y0vlOXhMaD4Kxx2ORCl1-38" target="Y0vlOXhMaD4Kxx2ORCl1-19" edge="1">
          <mxGeometry relative="1" as="geometry" />
        </mxCell>
        <mxCell id="Y0vlOXhMaD4Kxx2ORCl1-41" value="" style="edgeStyle=orthogonalEdgeStyle;rounded=0;orthogonalLoop=1;jettySize=auto;html=1;endArrow=none;endFill=0;" parent="1" source="Y0vlOXhMaD4Kxx2ORCl1-38" target="KLdIqzCfmj17ZEOP0-cl-11" edge="1">
          <mxGeometry relative="1" as="geometry">
            <Array as="points">
              <mxPoint x="745" y="2690" />
            </Array>
          </mxGeometry>
        </mxCell>
        <mxCell id="Y0vlOXhMaD4Kxx2ORCl1-38" value="Oliver Kagu&lt;br&gt;777-843" style="rounded=1;whiteSpace=wrap;html=1;" parent="1" vertex="1">
          <mxGeometry x="605" y="2660" width="120" height="60" as="geometry" />
        </mxCell>
        <mxCell id="Y0vlOXhMaD4Kxx2ORCl1-42" value="721-785" style="text;html=1;align=center;verticalAlign=middle;resizable=0;points=[];autosize=1;strokeColor=none;fillColor=none;" parent="1" vertex="1">
          <mxGeometry x="975" y="2414" width="70" height="30" as="geometry" />
        </mxCell>
        <mxCell id="Y0vlOXhMaD4Kxx2ORCl1-43" value="785-797" style="text;html=1;align=center;verticalAlign=middle;resizable=0;points=[];autosize=1;strokeColor=none;fillColor=none;" parent="1" vertex="1">
          <mxGeometry x="975" y="2516" width="70" height="30" as="geometry" />
        </mxCell>
        <mxCell id="Y0vlOXhMaD4Kxx2ORCl1-44" value="797-802" style="text;html=1;align=center;verticalAlign=middle;resizable=0;points=[];autosize=1;strokeColor=none;fillColor=none;" parent="1" vertex="1">
          <mxGeometry x="975" y="2616" width="70" height="30" as="geometry" />
        </mxCell>
        <mxCell id="Y0vlOXhMaD4Kxx2ORCl1-45" value="Jure Uxoris:&lt;br&gt;679-712" style="text;html=1;align=center;verticalAlign=middle;resizable=0;points=[];autosize=1;strokeColor=none;fillColor=none;" parent="1" vertex="1">
          <mxGeometry x="780" y="2217" width="90" height="40" as="geometry" />
        </mxCell>
        <mxCell id="Y0vlOXhMaD4Kxx2ORCl1-46" value="802-809" style="text;html=1;align=center;verticalAlign=middle;resizable=0;points=[];autosize=1;strokeColor=none;fillColor=none;" parent="1" vertex="1">
          <mxGeometry x="1215" y="2516" width="70" height="30" as="geometry" />
        </mxCell>
        <mxCell id="Y0vlOXhMaD4Kxx2ORCl1-47" value="Jure Uxoris: 802-809" style="text;html=1;align=center;verticalAlign=middle;resizable=0;points=[];autosize=1;strokeColor=none;fillColor=none;" parent="1" vertex="1">
          <mxGeometry x="1320" y="2516" width="130" height="30" as="geometry" />
        </mxCell>
        <mxCell id="Y0vlOXhMaD4Kxx2ORCl1-48" value="809-813" style="text;html=1;align=center;verticalAlign=middle;resizable=0;points=[];autosize=1;strokeColor=none;fillColor=none;" parent="1" vertex="1">
          <mxGeometry x="1295" y="2614" width="70" height="30" as="geometry" />
        </mxCell>
        <mxCell id="Y0vlOXhMaD4Kxx2ORCl1-49" value="Jure Uxoris: 809-813" style="text;html=1;align=center;verticalAlign=middle;resizable=0;points=[];autosize=1;strokeColor=none;fillColor=none;" parent="1" vertex="1">
          <mxGeometry x="1080" y="2614" width="130" height="30" as="geometry" />
        </mxCell>
        <mxCell id="Y0vlOXhMaD4Kxx2ORCl1-50" value="813-836" style="text;html=1;align=center;verticalAlign=middle;resizable=0;points=[];autosize=1;strokeColor=none;fillColor=none;" parent="1" vertex="1">
          <mxGeometry x="1295" y="2713" width="70" height="30" as="geometry" />
        </mxCell>
        <mxCell id="Y0vlOXhMaD4Kxx2ORCl1-51" value="Jure Uxoris: 813-836" style="text;html=1;align=center;verticalAlign=middle;resizable=0;points=[];autosize=1;strokeColor=none;fillColor=none;" parent="1" vertex="1">
          <mxGeometry x="1080" y="2713" width="130" height="30" as="geometry" />
        </mxCell>
        <mxCell id="Y0vlOXhMaD4Kxx2ORCl1-52" value="836-886" style="text;html=1;align=center;verticalAlign=middle;resizable=0;points=[];autosize=1;strokeColor=none;fillColor=none;" parent="1" vertex="1">
          <mxGeometry x="745" y="2815" width="70" height="30" as="geometry" />
        </mxCell>
        <mxCell id="vmewDD1x_ZXPCddzo8eD-4" value="Kingdom of Palorsenna" style="text;html=1;strokeColor=none;fillColor=none;align=center;verticalAlign=middle;whiteSpace=wrap;rounded=0;" parent="1" vertex="1">
          <mxGeometry x="355" y="2540" width="140" height="20" as="geometry" />
        </mxCell>
        <mxCell id="vmewDD1x_ZXPCddzo8eD-5" value="Kingdom of Lunaura" style="text;html=1;strokeColor=none;fillColor=none;align=center;verticalAlign=middle;whiteSpace=wrap;rounded=0;" parent="1" vertex="1">
          <mxGeometry x="930" y="2440" width="120" height="20" as="geometry" />
        </mxCell>
        <mxCell id="vmewDD1x_ZXPCddzo8eD-6" value="Queen Consort&lt;br&gt;Arwen Junipe&lt;br&gt;747-785" style="rounded=1;whiteSpace=wrap;html=1;" parent="1" vertex="1">
          <mxGeometry x="525" y="2560" width="120" height="60" as="geometry" />
        </mxCell>
        <mxCell id="vmewDD1x_ZXPCddzo8eD-11" value="676-714" style="text;html=1;strokeColor=none;fillColor=none;align=center;verticalAlign=middle;whiteSpace=wrap;rounded=0;" parent="1" vertex="1">
          <mxGeometry x="675" y="2220" width="50" height="20" as="geometry" />
        </mxCell>
        <mxCell id="vmewDD1x_ZXPCddzo8eD-12" value="Jure Uxoris:&lt;br&gt;676-697" style="text;html=1;strokeColor=none;fillColor=none;align=center;verticalAlign=middle;whiteSpace=wrap;rounded=0;" parent="1" vertex="1">
          <mxGeometry x="470" y="2220" width="70" height="30" as="geometry" />
        </mxCell>
        <mxCell id="vmewDD1x_ZXPCddzo8eD-13" value="Queen Consort&lt;br&gt;Hera Liven&lt;br&gt;728-802" style="rounded=1;whiteSpace=wrap;html=1;" parent="1" vertex="1">
          <mxGeometry x="205" y="2560" width="120" height="60" as="geometry" />
        </mxCell>
        <mxCell id="vmewDD1x_ZXPCddzo8eD-15" value="Princess&lt;br&gt;Lilianne Tari&lt;br&gt;750-819" style="rounded=1;whiteSpace=wrap;html=1;" parent="1" vertex="1">
          <mxGeometry x="285" y="2660" width="120" height="60" as="geometry" />
        </mxCell>
        <mxCell id="vmewDD1x_ZXPCddzo8eD-17" value="714-723" style="text;html=1;strokeColor=none;fillColor=none;align=center;verticalAlign=middle;whiteSpace=wrap;rounded=0;" parent="1" vertex="1">
          <mxGeometry x="595" y="2319" width="50" height="20" as="geometry" />
        </mxCell>
        <mxCell id="vmewDD1x_ZXPCddzo8eD-18" value="723-748" style="text;html=1;strokeColor=none;fillColor=none;align=center;verticalAlign=middle;whiteSpace=wrap;rounded=0;" parent="1" vertex="1">
          <mxGeometry x="515" y="2420" width="50" height="20" as="geometry" />
        </mxCell>
        <mxCell id="vmewDD1x_ZXPCddzo8eD-19" value="748-760" style="text;html=1;strokeColor=none;fillColor=none;align=center;verticalAlign=middle;whiteSpace=wrap;rounded=0;" parent="1" vertex="1">
          <mxGeometry x="435" y="2520" width="50" height="20" as="geometry" />
        </mxCell>
        <mxCell id="vmewDD1x_ZXPCddzo8eD-20" value="760-800" style="text;html=1;strokeColor=none;fillColor=none;align=center;verticalAlign=middle;whiteSpace=wrap;rounded=0;" parent="1" vertex="1">
          <mxGeometry x="435" y="2619" width="50" height="20" as="geometry" />
        </mxCell>
        <mxCell id="vmewDD1x_ZXPCddzo8eD-21" value="Regent: 800" style="text;html=1;strokeColor=none;fillColor=none;align=center;verticalAlign=middle;whiteSpace=wrap;rounded=0;fontSize=12;" parent="1" vertex="1">
          <mxGeometry x="215" y="2620" width="100" height="20" as="geometry" />
        </mxCell>
        <mxCell id="vmewDD1x_ZXPCddzo8eD-22" value="Regent: 800-805" style="text;html=1;strokeColor=none;fillColor=none;align=center;verticalAlign=middle;whiteSpace=wrap;rounded=0;fontSize=12;" parent="1" vertex="1">
          <mxGeometry x="295" y="2720" width="100" height="20" as="geometry" />
        </mxCell>
        <mxCell id="vmewDD1x_ZXPCddzo8eD-23" value="800-846" style="text;html=1;strokeColor=none;fillColor=none;align=center;verticalAlign=middle;whiteSpace=wrap;rounded=0;" parent="1" vertex="1">
          <mxGeometry x="515" y="2720" width="50" height="20" as="geometry" />
        </mxCell>
        <mxCell id="vmewDD1x_ZXPCddzo8eD-24" value="Jure Uxoris: 836-885&lt;br&gt;846-885" style="text;html=1;strokeColor=none;fillColor=none;align=center;verticalAlign=middle;whiteSpace=wrap;rounded=0;" parent="1" vertex="1">
          <mxGeometry x="445" y="2820" width="120" height="30" as="geometry" />
        </mxCell>
        <mxCell id="EGhb51R7LbqFZlrQQi_G-5" style="edgeStyle=orthogonalEdgeStyle;rounded=0;orthogonalLoop=1;jettySize=auto;html=1;entryX=0.5;entryY=0;entryDx=0;entryDy=0;endArrow=none;endFill=0;" parent="1" source="EGhb51R7LbqFZlrQQi_G-2" target="EGhb51R7LbqFZlrQQi_G-4" edge="1">
          <mxGeometry relative="1" as="geometry">
            <Array as="points">
              <mxPoint x="705" y="2890" />
            </Array>
          </mxGeometry>
        </mxCell>
        <mxCell id="EGhb51R7LbqFZlrQQi_G-2" value="Crown Prince&lt;br&gt;Victor Tari&lt;br&gt;842-871" style="rounded=1;whiteSpace=wrap;html=1;" parent="1" vertex="1">
          <mxGeometry x="565" y="2860" width="120" height="60" as="geometry" />
        </mxCell>
        <mxCell id="EGhb51R7LbqFZlrQQi_G-7" style="edgeStyle=orthogonalEdgeStyle;rounded=0;orthogonalLoop=1;jettySize=auto;html=1;entryX=0;entryY=0.5;entryDx=0;entryDy=0;endArrow=none;endFill=0;" parent="1" source="EGhb51R7LbqFZlrQQi_G-4" target="EGhb51R7LbqFZlrQQi_G-6" edge="1">
          <mxGeometry relative="1" as="geometry" />
        </mxCell>
        <mxCell id="s7n0dCixR8AVbY0DDlMb-6" style="edgeStyle=orthogonalEdgeStyle;rounded=0;orthogonalLoop=1;jettySize=auto;html=1;exitX=1;exitY=0.5;exitDx=0;exitDy=0;entryX=0.5;entryY=0;entryDx=0;entryDy=0;endArrow=none;endFill=0;" parent="1" source="EGhb51R7LbqFZlrQQi_G-4" target="s7n0dCixR8AVbY0DDlMb-4" edge="1">
          <mxGeometry relative="1" as="geometry" />
        </mxCell>
        <mxCell id="EGhb51R7LbqFZlrQQi_G-4" value="Leon V/II Tari&lt;br&gt;&quot;The Unifier&quot;&lt;br&gt;871-943" style="rounded=1;whiteSpace=wrap;html=1;fillColor=#d5e8d4;strokeColor=#82b366;" parent="1" vertex="1">
          <mxGeometry x="645" y="2960" width="120" height="60" as="geometry" />
        </mxCell>
        <mxCell id="EGhb51R7LbqFZlrQQi_G-6" value="Elizabeth II Ceros&lt;br&gt;&quot;The Queen&quot;&lt;br&gt;876-951" style="rounded=1;whiteSpace=wrap;html=1;fillColor=#dae8fc;strokeColor=#6c8ebf;" parent="1" vertex="1">
          <mxGeometry x="805" y="2960" width="120" height="60" as="geometry" />
        </mxCell>
        <mxCell id="0a4-h9v9CdZRFA2YYC3p-2" style="edgeStyle=orthogonalEdgeStyle;rounded=0;orthogonalLoop=1;jettySize=auto;html=1;exitX=0;exitY=0.5;exitDx=0;exitDy=0;endArrow=none;endFill=0;" parent="1" source="0a4-h9v9CdZRFA2YYC3p-1" edge="1">
          <mxGeometry relative="1" as="geometry">
            <mxPoint x="705" y="2960" as="targetPoint" />
          </mxGeometry>
        </mxCell>
        <mxCell id="0a4-h9v9CdZRFA2YYC3p-1" value="Crown Princess&lt;br&gt;Lilianne Pici&lt;br&gt;846-912" style="rounded=1;whiteSpace=wrap;html=1;" parent="1" vertex="1">
          <mxGeometry x="725" y="2860" width="120" height="60" as="geometry" />
        </mxCell>
        <mxCell id="0a4-h9v9CdZRFA2YYC3p-4" value="Regent: 885/6-891" style="text;html=1;strokeColor=none;fillColor=none;align=center;verticalAlign=middle;whiteSpace=wrap;rounded=0;" parent="1" vertex="1">
          <mxGeometry x="737.5" y="2920" width="107.5" height="20" as="geometry" />
        </mxCell>
        <mxCell id="s7n0dCixR8AVbY0DDlMb-1" value="885/6-943" style="text;html=1;align=center;verticalAlign=middle;resizable=1;points=[];autosize=1;strokeColor=none;fillColor=none;" parent="1" vertex="1">
          <mxGeometry x="705" y="3015" width="60" height="30" as="geometry" />
        </mxCell>
        <mxCell id="s7n0dCixR8AVbY0DDlMb-2" value="Jure Uxoris: 900-943" style="text;html=1;strokeColor=none;fillColor=none;align=center;verticalAlign=middle;whiteSpace=wrap;rounded=0;" parent="1" vertex="1">
          <mxGeometry x="805" y="3020" width="120" height="20" as="geometry" />
        </mxCell>
        <mxCell id="s7n0dCixR8AVbY0DDlMb-8" value="" style="edgeStyle=orthogonalEdgeStyle;rounded=0;orthogonalLoop=1;jettySize=auto;html=1;endArrow=none;endFill=0;" parent="1" source="s7n0dCixR8AVbY0DDlMb-4" target="s7n0dCixR8AVbY0DDlMb-7" edge="1">
          <mxGeometry relative="1" as="geometry" />
        </mxCell>
        <mxCell id="s7n0dCixR8AVbY0DDlMb-12" style="edgeStyle=orthogonalEdgeStyle;rounded=0;orthogonalLoop=1;jettySize=auto;html=1;exitX=0;exitY=0.5;exitDx=0;exitDy=0;entryX=0.5;entryY=0;entryDx=0;entryDy=0;endArrow=none;endFill=0;" parent="1" source="s7n0dCixR8AVbY0DDlMb-4" target="s7n0dCixR8AVbY0DDlMb-10" edge="1">
          <mxGeometry relative="1" as="geometry" />
        </mxCell>
        <mxCell id="s7n0dCixR8AVbY0DDlMb-4" value="Leonora I Tari&lt;br&gt;&quot;The Balancer&quot;&lt;br&gt;903-982" style="rounded=1;whiteSpace=wrap;html=1;fillColor=#d5e8d4;strokeColor=#82b366;" parent="1" vertex="1">
          <mxGeometry x="725" y="3060" width="120" height="60" as="geometry" />
        </mxCell>
        <mxCell id="s7n0dCixR8AVbY0DDlMb-5" value="943-982" style="text;html=1;strokeColor=none;fillColor=none;align=center;verticalAlign=middle;whiteSpace=wrap;rounded=0;" parent="1" vertex="1">
          <mxGeometry x="795" y="3120" width="50" height="20" as="geometry" />
        </mxCell>
        <mxCell id="s7n0dCixR8AVbY0DDlMb-7" value="Arthur II Primula&lt;br&gt;&quot;The Strange&quot;&lt;br&gt;899-975" style="rounded=1;whiteSpace=wrap;html=1;fillColor=#dae8fc;strokeColor=#6c8ebf;" parent="1" vertex="1">
          <mxGeometry x="565" y="3060" width="120" height="60" as="geometry" />
        </mxCell>
        <mxCell id="s7n0dCixR8AVbY0DDlMb-9" value="Jure Uxoris: 943-975" style="text;html=1;strokeColor=none;fillColor=none;align=center;verticalAlign=middle;whiteSpace=wrap;rounded=0;" parent="1" vertex="1">
          <mxGeometry x="570" y="3120" width="115" height="20" as="geometry" />
        </mxCell>
        <mxCell id="s7n0dCixR8AVbY0DDlMb-18" style="edgeStyle=orthogonalEdgeStyle;rounded=0;orthogonalLoop=1;jettySize=auto;html=1;exitX=1;exitY=0.5;exitDx=0;exitDy=0;entryX=0.5;entryY=0;entryDx=0;entryDy=0;endArrow=none;endFill=0;" parent="1" source="s7n0dCixR8AVbY0DDlMb-10" target="s7n0dCixR8AVbY0DDlMb-17" edge="1">
          <mxGeometry relative="1" as="geometry" />
        </mxCell>
        <mxCell id="s7n0dCixR8AVbY0DDlMb-10" value="Ellis I Primula&lt;br&gt;&quot;The Trying&quot;&lt;br&gt;935-996" style="rounded=1;whiteSpace=wrap;html=1;fillColor=#d5e8d4;strokeColor=#82b366;" parent="1" vertex="1">
          <mxGeometry x="645" y="3160" width="120" height="60" as="geometry" />
        </mxCell>
        <mxCell id="s7n0dCixR8AVbY0DDlMb-13" value="" style="edgeStyle=orthogonalEdgeStyle;rounded=0;orthogonalLoop=1;jettySize=auto;html=1;endArrow=none;endFill=0;" parent="1" source="s7n0dCixR8AVbY0DDlMb-11" target="s7n0dCixR8AVbY0DDlMb-10" edge="1">
          <mxGeometry relative="1" as="geometry" />
        </mxCell>
        <mxCell id="s7n0dCixR8AVbY0DDlMb-11" value="Morgana I Balena&lt;br&gt;&quot;Fake Queen&quot;&lt;br&gt;930-983" style="rounded=1;whiteSpace=wrap;html=1;fillColor=#dae8fc;strokeColor=#6c8ebf;" parent="1" vertex="1">
          <mxGeometry x="805" y="3160" width="120" height="60" as="geometry" />
        </mxCell>
        <mxCell id="s7n0dCixR8AVbY0DDlMb-14" value="" style="endArrow=none;dashed=1;html=1;dashPattern=1 3;strokeWidth=2;rounded=0;entryX=0.5;entryY=1;entryDx=0;entryDy=0;exitX=0.5;exitY=0;exitDx=0;exitDy=0;edgeStyle=orthogonalEdgeStyle;" parent="1" source="s7n0dCixR8AVbY0DDlMb-20" target="Y0vlOXhMaD4Kxx2ORCl1-35" edge="1">
          <mxGeometry width="50" height="50" relative="1" as="geometry">
            <mxPoint x="1065" y="3340" as="sourcePoint" />
            <mxPoint x="1135" y="2870" as="targetPoint" />
          </mxGeometry>
        </mxCell>
        <mxCell id="s7n0dCixR8AVbY0DDlMb-15" value="982-996" style="text;html=1;strokeColor=none;fillColor=none;align=center;verticalAlign=middle;whiteSpace=wrap;rounded=0;" parent="1" vertex="1">
          <mxGeometry x="715" y="3220" width="50" height="20" as="geometry" />
        </mxCell>
        <mxCell id="s7n0dCixR8AVbY0DDlMb-16" value="Jure Uxoris: 982-983" style="text;html=1;strokeColor=none;fillColor=none;align=center;verticalAlign=middle;whiteSpace=wrap;rounded=0;" parent="1" vertex="1">
          <mxGeometry x="805" y="3220" width="120" height="20" as="geometry" />
        </mxCell>
        <mxCell id="s7n0dCixR8AVbY0DDlMb-21" value="" style="edgeStyle=orthogonalEdgeStyle;rounded=0;orthogonalLoop=1;jettySize=auto;html=1;endArrow=none;endFill=0;" parent="1" source="s7n0dCixR8AVbY0DDlMb-17" target="s7n0dCixR8AVbY0DDlMb-19" edge="1">
          <mxGeometry relative="1" as="geometry" />
        </mxCell>
        <mxCell id="s7n0dCixR8AVbY0DDlMb-17" value="Crown Prince&lt;br&gt;Pavo Primula&lt;br&gt;953-979" style="rounded=1;whiteSpace=wrap;html=1;" parent="1" vertex="1">
          <mxGeometry x="725" y="3260" width="120" height="60" as="geometry" />
        </mxCell>
        <mxCell id="s7n0dCixR8AVbY0DDlMb-19" value="Elliot I Primula&lt;br&gt;&quot;The Grand&quot;&lt;br&gt;975-1066" style="rounded=1;whiteSpace=wrap;html=1;fillColor=#d5e8d4;strokeColor=#82b366;" parent="1" vertex="1">
          <mxGeometry x="725" y="3360" width="120" height="60" as="geometry" />
        </mxCell>
        <mxCell id="s7n0dCixR8AVbY0DDlMb-23" value="" style="edgeStyle=orthogonalEdgeStyle;rounded=0;orthogonalLoop=1;jettySize=auto;html=1;endArrow=none;endFill=0;" parent="1" source="s7n0dCixR8AVbY0DDlMb-20" target="s7n0dCixR8AVbY0DDlMb-19" edge="1">
          <mxGeometry relative="1" as="geometry" />
        </mxCell>
        <mxCell id="s7n0dCixR8AVbY0DDlMb-27" style="edgeStyle=orthogonalEdgeStyle;rounded=0;orthogonalLoop=1;jettySize=auto;html=1;exitX=0;exitY=0.5;exitDx=0;exitDy=0;entryX=0.5;entryY=0;entryDx=0;entryDy=0;endArrow=none;endFill=0;" parent="1" source="s7n0dCixR8AVbY0DDlMb-20" target="s7n0dCixR8AVbY0DDlMb-24" edge="1">
          <mxGeometry relative="1" as="geometry" />
        </mxCell>
        <mxCell id="s7n0dCixR8AVbY0DDlMb-20" value="Luna II Artun&lt;br&gt;&quot;The Claimant&quot;&lt;br&gt;976-1066" style="rounded=1;whiteSpace=wrap;html=1;fillColor=#dae8fc;strokeColor=#6c8ebf;" parent="1" vertex="1">
          <mxGeometry x="885" y="3360" width="120" height="60" as="geometry" />
        </mxCell>
        <mxCell id="Yhg_u6gzXOtYaM3I6TZ_-6" value="" style="edgeStyle=orthogonalEdgeStyle;rounded=0;orthogonalLoop=1;jettySize=auto;html=1;endArrow=none;endFill=0;" parent="1" source="s7n0dCixR8AVbY0DDlMb-24" target="Yhg_u6gzXOtYaM3I6TZ_-5" edge="1">
          <mxGeometry relative="1" as="geometry" />
        </mxCell>
        <mxCell id="Yhg_u6gzXOtYaM3I6TZ_-22" style="edgeStyle=orthogonalEdgeStyle;rounded=0;orthogonalLoop=1;jettySize=auto;html=1;exitX=0;exitY=0.5;exitDx=0;exitDy=0;entryX=0.5;entryY=0;entryDx=0;entryDy=0;endArrow=none;endFill=0;" parent="1" source="s7n0dCixR8AVbY0DDlMb-24" target="Yhg_u6gzXOtYaM3I6TZ_-21" edge="1">
          <mxGeometry relative="1" as="geometry" />
        </mxCell>
        <mxCell id="s7n0dCixR8AVbY0DDlMb-24" value="Adam II Primula&lt;br&gt;&quot;The Golden&quot;&lt;br&gt;997-1076" style="rounded=1;whiteSpace=wrap;html=1;fillColor=#d5e8d4;strokeColor=#82b366;" parent="1" vertex="1">
          <mxGeometry x="805" y="3460" width="120" height="60" as="geometry" />
        </mxCell>
        <mxCell id="s7n0dCixR8AVbY0DDlMb-25" value="996-1066" style="text;html=1;align=center;verticalAlign=middle;resizable=1;points=[];autosize=1;strokeColor=none;fillColor=none;" parent="1" vertex="1">
          <mxGeometry x="785" y="3420" width="60" height="20" as="geometry" />
        </mxCell>
        <mxCell id="s7n0dCixR8AVbY0DDlMb-26" value="Jure Uxoris: 996-1066" style="text;html=1;strokeColor=none;fillColor=none;align=center;verticalAlign=middle;whiteSpace=wrap;rounded=0;" parent="1" vertex="1">
          <mxGeometry x="880" y="3420" width="130" height="20" as="geometry" />
        </mxCell>
        <mxCell id="s7n0dCixR8AVbY0DDlMb-28" value="1066-1076" style="text;html=1;strokeColor=none;fillColor=none;align=center;verticalAlign=middle;whiteSpace=wrap;rounded=0;" parent="1" vertex="1">
          <mxGeometry x="865" y="3520" width="60" height="20" as="geometry" />
        </mxCell>
        <mxCell id="Yhg_u6gzXOtYaM3I6TZ_-10" value="" style="edgeStyle=orthogonalEdgeStyle;rounded=0;orthogonalLoop=1;jettySize=auto;html=1;endArrow=none;endFill=0;" parent="1" source="Yhg_u6gzXOtYaM3I6TZ_-1" target="Yhg_u6gzXOtYaM3I6TZ_-8" edge="1">
          <mxGeometry relative="1" as="geometry" />
        </mxCell>
        <mxCell id="Yhg_u6gzXOtYaM3I6TZ_-1" value="Stephen I Primula&lt;br&gt;&quot;The Peaceful&quot;&lt;br&gt;1031-1105" style="rounded=1;whiteSpace=wrap;html=1;fillColor=#d5e8d4;strokeColor=#82b366;" parent="1" vertex="1">
          <mxGeometry x="565" y="3560" width="120" height="60" as="geometry" />
        </mxCell>
        <mxCell id="Yhg_u6gzXOtYaM3I6TZ_-4" value="1076-1105" style="text;html=1;strokeColor=none;fillColor=none;align=center;verticalAlign=middle;whiteSpace=wrap;rounded=0;" parent="1" vertex="1">
          <mxGeometry x="625" y="3620" width="60" height="20" as="geometry" />
        </mxCell>
        <mxCell id="Yhg_u6gzXOtYaM3I6TZ_-7" style="edgeStyle=orthogonalEdgeStyle;rounded=0;orthogonalLoop=1;jettySize=auto;html=1;exitX=1;exitY=0.5;exitDx=0;exitDy=0;entryX=0.5;entryY=0;entryDx=0;entryDy=0;endArrow=none;endFill=0;" parent="1" source="Yhg_u6gzXOtYaM3I6TZ_-5" target="Yhg_u6gzXOtYaM3I6TZ_-1" edge="1">
          <mxGeometry relative="1" as="geometry" />
        </mxCell>
        <mxCell id="Yhg_u6gzXOtYaM3I6TZ_-5" value="Lilianne I Veton&lt;br&gt;&quot;The Stupid&quot;&lt;br&gt;1006-1093" style="rounded=1;whiteSpace=wrap;html=1;fillColor=#dae8fc;strokeColor=#6c8ebf;" parent="1" vertex="1">
          <mxGeometry x="645" y="3460" width="120" height="60" as="geometry" />
        </mxCell>
        <mxCell id="Yhg_u6gzXOtYaM3I6TZ_-12" style="edgeStyle=orthogonalEdgeStyle;rounded=0;orthogonalLoop=1;jettySize=auto;html=1;exitX=0;exitY=0.5;exitDx=0;exitDy=0;entryX=0.5;entryY=0;entryDx=0;entryDy=0;endArrow=none;endFill=0;" parent="1" source="Yhg_u6gzXOtYaM3I6TZ_-8" target="Yhg_u6gzXOtYaM3I6TZ_-11" edge="1">
          <mxGeometry relative="1" as="geometry">
            <Array as="points">
              <mxPoint x="705" y="3590" />
              <mxPoint x="705" y="3640" />
              <mxPoint x="625" y="3640" />
            </Array>
          </mxGeometry>
        </mxCell>
        <mxCell id="Yhg_u6gzXOtYaM3I6TZ_-8" value="Crown Princess&lt;br&gt;Olivia Harus&lt;br&gt;1029-1073" style="rounded=1;whiteSpace=wrap;html=1;" parent="1" vertex="1">
          <mxGeometry x="725" y="3560" width="120" height="60" as="geometry" />
        </mxCell>
        <mxCell id="Yhg_u6gzXOtYaM3I6TZ_-18" value="" style="edgeStyle=orthogonalEdgeStyle;rounded=0;orthogonalLoop=1;jettySize=auto;html=1;endArrow=none;endFill=0;" parent="1" source="Yhg_u6gzXOtYaM3I6TZ_-11" target="Yhg_u6gzXOtYaM3I6TZ_-17" edge="1">
          <mxGeometry relative="1" as="geometry" />
        </mxCell>
        <mxCell id="Yhg_u6gzXOtYaM3I6TZ_-29" style="edgeStyle=orthogonalEdgeStyle;rounded=0;orthogonalLoop=1;jettySize=auto;html=1;exitX=0;exitY=0.5;exitDx=0;exitDy=0;entryX=0.5;entryY=0;entryDx=0;entryDy=0;endArrow=none;endFill=0;dashed=1;" parent="1" source="Yhg_u6gzXOtYaM3I6TZ_-11" target="Yhg_u6gzXOtYaM3I6TZ_-27" edge="1">
          <mxGeometry relative="1" as="geometry">
            <Array as="points">
              <mxPoint x="515" y="3690" />
              <mxPoint x="515" y="3740" />
              <mxPoint x="625" y="3740" />
            </Array>
          </mxGeometry>
        </mxCell>
        <mxCell id="Yhg_u6gzXOtYaM3I6TZ_-11" value="Elliot II Primula&lt;br&gt;&quot;The Defender&quot;&lt;br&gt;1057-1111" style="rounded=1;whiteSpace=wrap;html=1;fillColor=#d5e8d4;strokeColor=#82b366;" parent="1" vertex="1">
          <mxGeometry x="565" y="3660" width="120" height="60" as="geometry" />
        </mxCell>
        <mxCell id="Yhg_u6gzXOtYaM3I6TZ_-40" style="edgeStyle=orthogonalEdgeStyle;rounded=0;orthogonalLoop=1;jettySize=auto;html=1;exitX=1;exitY=0.5;exitDx=0;exitDy=0;entryX=0.5;entryY=0;entryDx=0;entryDy=0;endArrow=none;endFill=0;" parent="1" source="Yhg_u6gzXOtYaM3I6TZ_-17" target="Yhg_u6gzXOtYaM3I6TZ_-39" edge="1">
          <mxGeometry relative="1" as="geometry">
            <Array as="points">
              <mxPoint x="515" y="3690" />
              <mxPoint x="515" y="3740" />
              <mxPoint x="465" y="3740" />
            </Array>
          </mxGeometry>
        </mxCell>
        <mxCell id="TFvRyGkdYgD6_qLrY0AO-12" style="edgeStyle=orthogonalEdgeStyle;rounded=0;orthogonalLoop=1;jettySize=auto;html=1;exitX=0;exitY=0.5;exitDx=0;exitDy=0;entryX=1;entryY=0.5;entryDx=0;entryDy=0;endArrow=none;endFill=0;" parent="1" source="Yhg_u6gzXOtYaM3I6TZ_-17" target="TFvRyGkdYgD6_qLrY0AO-9" edge="1">
          <mxGeometry relative="1" as="geometry" />
        </mxCell>
        <mxCell id="Yhg_u6gzXOtYaM3I6TZ_-17" value="Louise II Froni&lt;br&gt;&quot;The Uplifted&quot;&lt;br&gt;1068-1143" style="rounded=1;whiteSpace=wrap;html=1;fillColor=#dae8fc;strokeColor=#6c8ebf;" parent="1" vertex="1">
          <mxGeometry x="335" y="3660" width="120" height="60" as="geometry" />
        </mxCell>
        <mxCell id="Yhg_u6gzXOtYaM3I6TZ_-38" style="edgeStyle=orthogonalEdgeStyle;rounded=0;orthogonalLoop=1;jettySize=auto;html=1;exitX=0.5;exitY=1;exitDx=0;exitDy=0;entryX=0.5;entryY=0;entryDx=0;entryDy=0;endArrow=none;endFill=0;dashed=1;" parent="1" source="Yhg_u6gzXOtYaM3I6TZ_-19" target="Yhg_u6gzXOtYaM3I6TZ_-35" edge="1">
          <mxGeometry relative="1" as="geometry" />
        </mxCell>
        <mxCell id="Yhg_u6gzXOtYaM3I6TZ_-19" value="Crown Princess&lt;br&gt;Leonora Primula&lt;br&gt;1091-1111" style="rounded=1;whiteSpace=wrap;html=1;" parent="1" vertex="1">
          <mxGeometry x="245" y="3760" width="120" height="60" as="geometry" />
        </mxCell>
        <mxCell id="Yhg_u6gzXOtYaM3I6TZ_-24" style="edgeStyle=orthogonalEdgeStyle;rounded=0;orthogonalLoop=1;jettySize=auto;html=1;exitX=0.5;exitY=1;exitDx=0;exitDy=0;entryX=0.5;entryY=0;entryDx=0;entryDy=0;endArrow=none;endFill=0;" parent="1" source="Yhg_u6gzXOtYaM3I6TZ_-21" target="Yhg_u6gzXOtYaM3I6TZ_-23" edge="1">
          <mxGeometry relative="1" as="geometry" />
        </mxCell>
        <mxCell id="Yhg_u6gzXOtYaM3I6TZ_-21" value="Prince&lt;br&gt;Adam Primula&lt;br&gt;1034-1096" style="rounded=1;whiteSpace=wrap;html=1;" parent="1" vertex="1">
          <mxGeometry x="885" y="3560" width="120" height="60" as="geometry" />
        </mxCell>
        <mxCell id="Yhg_u6gzXOtYaM3I6TZ_-26" value="" style="edgeStyle=orthogonalEdgeStyle;rounded=0;orthogonalLoop=1;jettySize=auto;html=1;endArrow=none;endFill=0;" parent="1" source="Yhg_u6gzXOtYaM3I6TZ_-23" target="Yhg_u6gzXOtYaM3I6TZ_-25" edge="1">
          <mxGeometry relative="1" as="geometry" />
        </mxCell>
        <mxCell id="Yhg_u6gzXOtYaM3I6TZ_-23" value="Prince&lt;br&gt;Ellis Primula&lt;br&gt;1061-1123" style="rounded=1;whiteSpace=wrap;html=1;" parent="1" vertex="1">
          <mxGeometry x="885" y="3660" width="120" height="60" as="geometry" />
        </mxCell>
        <mxCell id="Yhg_u6gzXOtYaM3I6TZ_-44" style="edgeStyle=orthogonalEdgeStyle;rounded=0;orthogonalLoop=1;jettySize=auto;html=1;exitX=0.5;exitY=1;exitDx=0;exitDy=0;entryX=0.5;entryY=0;entryDx=0;entryDy=0;endArrow=none;endFill=0;" parent="1" source="Yhg_u6gzXOtYaM3I6TZ_-25" target="Yhg_u6gzXOtYaM3I6TZ_-43" edge="1">
          <mxGeometry relative="1" as="geometry" />
        </mxCell>
        <mxCell id="Yhg_u6gzXOtYaM3I6TZ_-25" value="Marquess&lt;br&gt;Oliver Primula-Lowe&lt;br&gt;1092-1142" style="rounded=1;whiteSpace=wrap;html=1;" parent="1" vertex="1">
          <mxGeometry x="885" y="3760" width="120" height="60" as="geometry" />
        </mxCell>
        <mxCell id="Yhg_u6gzXOtYaM3I6TZ_-46" style="edgeStyle=orthogonalEdgeStyle;rounded=0;orthogonalLoop=1;jettySize=auto;html=1;exitX=0.5;exitY=1;exitDx=0;exitDy=0;entryX=0.5;entryY=0;entryDx=0;entryDy=0;endArrow=none;endFill=0;" parent="1" source="Yhg_u6gzXOtYaM3I6TZ_-27" target="Yhg_u6gzXOtYaM3I6TZ_-41" edge="1">
          <mxGeometry relative="1" as="geometry" />
        </mxCell>
        <mxCell id="Yhg_u6gzXOtYaM3I6TZ_-27" value="Crown Prince&lt;br&gt;Leon Primula&lt;br&gt;1096(?)-" style="rounded=1;whiteSpace=wrap;html=1;" parent="1" vertex="1">
          <mxGeometry x="565" y="3760" width="120" height="60" as="geometry" />
        </mxCell>
        <mxCell id="Yhg_u6gzXOtYaM3I6TZ_-30" value="1105-1111" style="text;html=1;strokeColor=none;fillColor=none;align=center;verticalAlign=middle;whiteSpace=wrap;rounded=0;" parent="1" vertex="1">
          <mxGeometry x="630" y="3720" width="60" height="20" as="geometry" />
        </mxCell>
        <mxCell id="Yhg_u6gzXOtYaM3I6TZ_-45" style="edgeStyle=orthogonalEdgeStyle;rounded=0;orthogonalLoop=1;jettySize=auto;html=1;exitX=0.5;exitY=1;exitDx=0;exitDy=0;entryX=0.5;entryY=0;entryDx=0;entryDy=0;endArrow=none;endFill=0;" parent="1" source="Yhg_u6gzXOtYaM3I6TZ_-33" target="Yhg_u6gzXOtYaM3I6TZ_-42" edge="1">
          <mxGeometry relative="1" as="geometry" />
        </mxCell>
        <mxCell id="Yhg_u6gzXOtYaM3I6TZ_-33" value="Count&lt;br&gt;Ellis Dendron&lt;br&gt;1107-1169" style="rounded=1;whiteSpace=wrap;html=1;" parent="1" vertex="1">
          <mxGeometry x="725" y="3760" width="120" height="60" as="geometry" />
        </mxCell>
        <mxCell id="Yhg_u6gzXOtYaM3I6TZ_-62" value="" style="edgeStyle=orthogonalEdgeStyle;rounded=0;orthogonalLoop=1;jettySize=auto;html=1;endArrow=none;endFill=0;" parent="1" source="Yhg_u6gzXOtYaM3I6TZ_-35" target="Yhg_u6gzXOtYaM3I6TZ_-61" edge="1">
          <mxGeometry relative="1" as="geometry" />
        </mxCell>
        <mxCell id="Yhg_u6gzXOtYaM3I6TZ_-35" value="Lord&lt;br&gt;George Primula&lt;br&gt;1109-1189" style="rounded=1;whiteSpace=wrap;html=1;" parent="1" vertex="1">
          <mxGeometry x="245" y="3860" width="120" height="60" as="geometry" />
        </mxCell>
        <mxCell id="Yhg_u6gzXOtYaM3I6TZ_-37" value="?" style="text;html=1;strokeColor=none;fillColor=none;align=center;verticalAlign=middle;whiteSpace=wrap;rounded=0;" parent="1" vertex="1">
          <mxGeometry x="625" y="3740" width="40" height="20" as="geometry" />
        </mxCell>
        <mxCell id="Yhg_u6gzXOtYaM3I6TZ_-39" value="Crown Prince&lt;br&gt;Leon Primula&lt;br&gt;1096-1101" style="rounded=1;whiteSpace=wrap;html=1;" parent="1" vertex="1">
          <mxGeometry x="405" y="3760" width="120" height="60" as="geometry" />
        </mxCell>
        <mxCell id="Yhg_u6gzXOtYaM3I6TZ_-49" style="edgeStyle=orthogonalEdgeStyle;rounded=0;orthogonalLoop=1;jettySize=auto;html=1;exitX=0.5;exitY=1;exitDx=0;exitDy=0;entryX=0.5;entryY=0;entryDx=0;entryDy=0;endArrow=none;endFill=0;" parent="1" source="Yhg_u6gzXOtYaM3I6TZ_-41" target="Yhg_u6gzXOtYaM3I6TZ_-48" edge="1">
          <mxGeometry relative="1" as="geometry" />
        </mxCell>
        <mxCell id="Yhg_u6gzXOtYaM3I6TZ_-41" value="John Primula&lt;br&gt;-" style="rounded=1;whiteSpace=wrap;html=1;" parent="1" vertex="1">
          <mxGeometry x="565" y="3860" width="120" height="60" as="geometry" />
        </mxCell>
        <mxCell id="Yhg_u6gzXOtYaM3I6TZ_-51" style="edgeStyle=orthogonalEdgeStyle;rounded=0;orthogonalLoop=1;jettySize=auto;html=1;exitX=0.5;exitY=1;exitDx=0;exitDy=0;entryX=0.5;entryY=0;entryDx=0;entryDy=0;endArrow=none;endFill=0;" parent="1" source="Yhg_u6gzXOtYaM3I6TZ_-42" target="Yhg_u6gzXOtYaM3I6TZ_-50" edge="1">
          <mxGeometry relative="1" as="geometry" />
        </mxCell>
        <mxCell id="Yhg_u6gzXOtYaM3I6TZ_-42" value="Count&lt;br&gt;Elliot Dendron&lt;br&gt;1132-1195" style="rounded=1;whiteSpace=wrap;html=1;" parent="1" vertex="1">
          <mxGeometry x="725" y="3860" width="120" height="60" as="geometry" />
        </mxCell>
        <mxCell id="Yhg_u6gzXOtYaM3I6TZ_-54" style="edgeStyle=orthogonalEdgeStyle;rounded=0;orthogonalLoop=1;jettySize=auto;html=1;exitX=0.5;exitY=1;exitDx=0;exitDy=0;entryX=0.5;entryY=0;entryDx=0;entryDy=0;endArrow=none;endFill=0;" parent="1" source="Yhg_u6gzXOtYaM3I6TZ_-43" target="Yhg_u6gzXOtYaM3I6TZ_-52" edge="1">
          <mxGeometry relative="1" as="geometry" />
        </mxCell>
        <mxCell id="Yhg_u6gzXOtYaM3I6TZ_-43" value="Marquess&lt;br&gt;Junex Primula-Lowe&lt;br&gt;1128-1202" style="rounded=1;whiteSpace=wrap;html=1;" parent="1" vertex="1">
          <mxGeometry x="885" y="3860" width="120" height="60" as="geometry" />
        </mxCell>
        <mxCell id="Yhg_u6gzXOtYaM3I6TZ_-48" value="Otto Primula&lt;br&gt;-" style="rounded=1;whiteSpace=wrap;html=1;" parent="1" vertex="1">
          <mxGeometry x="565" y="3960" width="120" height="60" as="geometry" />
        </mxCell>
        <mxCell id="Yhg_u6gzXOtYaM3I6TZ_-53" style="edgeStyle=orthogonalEdgeStyle;rounded=0;orthogonalLoop=1;jettySize=auto;html=1;exitX=1;exitY=0.5;exitDx=0;exitDy=0;entryX=0;entryY=0.5;entryDx=0;entryDy=0;endArrow=none;endFill=0;" parent="1" source="Yhg_u6gzXOtYaM3I6TZ_-50" target="Yhg_u6gzXOtYaM3I6TZ_-52" edge="1">
          <mxGeometry relative="1" as="geometry" />
        </mxCell>
        <mxCell id="Yhg_u6gzXOtYaM3I6TZ_-56" style="edgeStyle=orthogonalEdgeStyle;rounded=0;orthogonalLoop=1;jettySize=auto;html=1;exitX=1;exitY=0.5;exitDx=0;exitDy=0;entryX=0.5;entryY=0;entryDx=0;entryDy=0;endArrow=none;endFill=0;" parent="1" source="Yhg_u6gzXOtYaM3I6TZ_-50" edge="1">
          <mxGeometry relative="1" as="geometry">
            <mxPoint x="865" y="4060" as="targetPoint" />
          </mxGeometry>
        </mxCell>
        <mxCell id="Yhg_u6gzXOtYaM3I6TZ_-50" value="Count&lt;br&gt;Ellis Dendron&lt;br&gt;1161-1231" style="rounded=1;whiteSpace=wrap;html=1;" parent="1" vertex="1">
          <mxGeometry x="725" y="3960" width="120" height="60" as="geometry" />
        </mxCell>
        <mxCell id="Yhg_u6gzXOtYaM3I6TZ_-52" value="Marchioness&lt;br&gt;Arwen Primula-Lowe&lt;br&gt;1163-1245" style="rounded=1;whiteSpace=wrap;html=1;" parent="1" vertex="1">
          <mxGeometry x="885" y="3960" width="120" height="60" as="geometry" />
        </mxCell>
        <mxCell id="Yhg_u6gzXOtYaM3I6TZ_-72" style="edgeStyle=orthogonalEdgeStyle;rounded=0;orthogonalLoop=1;jettySize=auto;html=1;exitX=0.5;exitY=1;exitDx=0;exitDy=0;entryX=0.5;entryY=0;entryDx=0;entryDy=0;endArrow=none;endFill=0;" parent="1" source="Yhg_u6gzXOtYaM3I6TZ_-57" target="Yhg_u6gzXOtYaM3I6TZ_-70" edge="1">
          <mxGeometry relative="1" as="geometry" />
        </mxCell>
        <mxCell id="Yhg_u6gzXOtYaM3I6TZ_-57" value="Elliot III Dendron&lt;br&gt;&quot;Northern Lord&quot;&lt;br&gt;1189-1258" style="rounded=1;whiteSpace=wrap;html=1;fillColor=#EBEBEB;strokeColor=#666666;fontColor=#333333;" parent="1" vertex="1">
          <mxGeometry x="805" y="4060" width="120" height="60" as="geometry" />
        </mxCell>
        <mxCell id="Yhg_u6gzXOtYaM3I6TZ_-58" value="1199-1258" style="text;html=1;strokeColor=none;fillColor=none;align=center;verticalAlign=middle;whiteSpace=wrap;rounded=0;" parent="1" vertex="1">
          <mxGeometry x="865" y="4120" width="60" height="20" as="geometry" />
        </mxCell>
        <mxCell id="Yhg_u6gzXOtYaM3I6TZ_-59" value="Regent: 1199-1209" style="text;html=1;align=center;verticalAlign=middle;resizable=1;points=[];autosize=1;strokeColor=none;fillColor=none;" parent="1" vertex="1">
          <mxGeometry x="725" y="4020" width="120" height="20" as="geometry" />
        </mxCell>
        <mxCell id="Yhg_u6gzXOtYaM3I6TZ_-60" value="Regent: 1199-1209" style="text;html=1;align=center;verticalAlign=middle;resizable=1;points=[];autosize=1;strokeColor=none;fillColor=none;" parent="1" vertex="1">
          <mxGeometry x="885" y="4020" width="120" height="20" as="geometry" />
        </mxCell>
        <mxCell id="Yhg_u6gzXOtYaM3I6TZ_-64" value="" style="edgeStyle=orthogonalEdgeStyle;rounded=0;orthogonalLoop=1;jettySize=auto;html=1;endArrow=none;endFill=0;" parent="1" source="Yhg_u6gzXOtYaM3I6TZ_-61" target="Yhg_u6gzXOtYaM3I6TZ_-63" edge="1">
          <mxGeometry relative="1" as="geometry" />
        </mxCell>
        <mxCell id="Yhg_u6gzXOtYaM3I6TZ_-61" value="Lady&lt;br&gt;Luna Primula&lt;br&gt;1133-1204" style="rounded=1;whiteSpace=wrap;html=1;" parent="1" vertex="1">
          <mxGeometry x="245" y="3960" width="120" height="60" as="geometry" />
        </mxCell>
        <mxCell id="Yhg_u6gzXOtYaM3I6TZ_-66" value="" style="edgeStyle=orthogonalEdgeStyle;rounded=0;orthogonalLoop=1;jettySize=auto;html=1;endArrow=none;endFill=0;" parent="1" source="Yhg_u6gzXOtYaM3I6TZ_-63" target="Yhg_u6gzXOtYaM3I6TZ_-65" edge="1">
          <mxGeometry relative="1" as="geometry" />
        </mxCell>
        <mxCell id="Yhg_u6gzXOtYaM3I6TZ_-63" value="Mister&lt;br&gt;Duncan Primster&lt;br&gt;1162-1245" style="rounded=1;whiteSpace=wrap;html=1;" parent="1" vertex="1">
          <mxGeometry x="245" y="4060" width="120" height="60" as="geometry" />
        </mxCell>
        <mxCell id="Yhg_u6gzXOtYaM3I6TZ_-68" value="" style="edgeStyle=orthogonalEdgeStyle;rounded=0;orthogonalLoop=1;jettySize=auto;html=1;endArrow=none;endFill=0;" parent="1" source="Yhg_u6gzXOtYaM3I6TZ_-65" target="Yhg_u6gzXOtYaM3I6TZ_-67" edge="1">
          <mxGeometry relative="1" as="geometry" />
        </mxCell>
        <mxCell id="Yhg_u6gzXOtYaM3I6TZ_-65" value="Mister&lt;br&gt;Pavo Frowster&lt;br&gt;1191-1267" style="rounded=1;whiteSpace=wrap;html=1;" parent="1" vertex="1">
          <mxGeometry x="245" y="4160" width="120" height="60" as="geometry" />
        </mxCell>
        <mxCell id="Yhg_u6gzXOtYaM3I6TZ_-75" style="edgeStyle=orthogonalEdgeStyle;rounded=0;orthogonalLoop=1;jettySize=auto;html=1;exitX=0.5;exitY=1;exitDx=0;exitDy=0;entryX=0.5;entryY=0;entryDx=0;entryDy=0;endArrow=none;endFill=0;" parent="1" source="Yhg_u6gzXOtYaM3I6TZ_-67" target="Yhg_u6gzXOtYaM3I6TZ_-74" edge="1">
          <mxGeometry relative="1" as="geometry" />
        </mxCell>
        <mxCell id="Yhg_u6gzXOtYaM3I6TZ_-67" value="Mister&lt;br&gt;Alexander Maester&lt;br&gt;1221-1259" style="rounded=1;whiteSpace=wrap;html=1;" parent="1" vertex="1">
          <mxGeometry x="245" y="4260" width="120" height="60" as="geometry" />
        </mxCell>
        <mxCell id="Yhg_u6gzXOtYaM3I6TZ_-78" style="edgeStyle=orthogonalEdgeStyle;rounded=0;orthogonalLoop=1;jettySize=auto;html=1;exitX=0.5;exitY=1;exitDx=0;exitDy=0;entryX=0.5;entryY=0;entryDx=0;entryDy=0;endArrow=none;endFill=0;" parent="1" source="Yhg_u6gzXOtYaM3I6TZ_-70" target="Yhg_u6gzXOtYaM3I6TZ_-77" edge="1">
          <mxGeometry relative="1" as="geometry" />
        </mxCell>
        <mxCell id="Yhg_u6gzXOtYaM3I6TZ_-70" value="Ellis II Dendron&lt;br&gt;&quot;Coastbringer&quot;&lt;br&gt;1204-1276" style="rounded=1;whiteSpace=wrap;html=1;fillColor=#EBEBEB;strokeColor=#666666;fontColor=#333333;" parent="1" vertex="1">
          <mxGeometry x="805" y="4160" width="120" height="60" as="geometry" />
        </mxCell>
        <mxCell id="Yhg_u6gzXOtYaM3I6TZ_-73" value="1258-1276" style="text;html=1;strokeColor=none;fillColor=none;align=center;verticalAlign=middle;whiteSpace=wrap;rounded=0;" parent="1" vertex="1">
          <mxGeometry x="865" y="4220" width="60" height="20" as="geometry" />
        </mxCell>
        <mxCell id="Yhg_u6gzXOtYaM3I6TZ_-82" style="edgeStyle=orthogonalEdgeStyle;rounded=0;orthogonalLoop=1;jettySize=auto;html=1;exitX=1;exitY=0.5;exitDx=0;exitDy=0;entryX=0;entryY=0.5;entryDx=0;entryDy=0;endArrow=none;endFill=0;" parent="1" source="Yhg_u6gzXOtYaM3I6TZ_-74" target="Yhg_u6gzXOtYaM3I6TZ_-80" edge="1">
          <mxGeometry relative="1" as="geometry" />
        </mxCell>
        <mxCell id="Yhg_u6gzXOtYaM3I6TZ_-85" value="" style="edgeStyle=orthogonalEdgeStyle;rounded=0;orthogonalLoop=1;jettySize=auto;html=1;endArrow=none;endFill=0;" parent="1" source="Yhg_u6gzXOtYaM3I6TZ_-74" target="Yhg_u6gzXOtYaM3I6TZ_-83" edge="1">
          <mxGeometry relative="1" as="geometry" />
        </mxCell>
        <mxCell id="Yhg_u6gzXOtYaM3I6TZ_-95" style="edgeStyle=orthogonalEdgeStyle;rounded=0;orthogonalLoop=1;jettySize=auto;html=1;exitX=1;exitY=0.5;exitDx=0;exitDy=0;entryX=0.5;entryY=0;entryDx=0;entryDy=0;endArrow=none;endFill=0;" parent="1" source="Yhg_u6gzXOtYaM3I6TZ_-74" target="Yhg_u6gzXOtYaM3I6TZ_-92" edge="1">
          <mxGeometry relative="1" as="geometry" />
        </mxCell>
        <mxCell id="Yhg_u6gzXOtYaM3I6TZ_-102" style="edgeStyle=orthogonalEdgeStyle;rounded=0;orthogonalLoop=1;jettySize=auto;html=1;exitX=0;exitY=0.5;exitDx=0;exitDy=0;entryX=0.5;entryY=0;entryDx=0;entryDy=0;endArrow=none;endFill=0;" parent="1" source="Yhg_u6gzXOtYaM3I6TZ_-74" target="Yhg_u6gzXOtYaM3I6TZ_-101" edge="1">
          <mxGeometry relative="1" as="geometry" />
        </mxCell>
        <mxCell id="Yhg_u6gzXOtYaM3I6TZ_-74" value="Luna III Magster&lt;br&gt;&quot;The New Queen&quot;&lt;br&gt;1250-1336" style="rounded=1;whiteSpace=wrap;html=1;fillColor=#dae8fc;strokeColor=#6c8ebf;" parent="1" vertex="1">
          <mxGeometry x="245" y="4360" width="120" height="60" as="geometry" />
        </mxCell>
        <mxCell id="Yhg_u6gzXOtYaM3I6TZ_-81" style="edgeStyle=orthogonalEdgeStyle;rounded=0;orthogonalLoop=1;jettySize=auto;html=1;exitX=0.5;exitY=1;exitDx=0;exitDy=0;entryX=0.5;entryY=0;entryDx=0;entryDy=0;endArrow=none;endFill=0;" parent="1" source="Yhg_u6gzXOtYaM3I6TZ_-77" target="Yhg_u6gzXOtYaM3I6TZ_-80" edge="1">
          <mxGeometry relative="1" as="geometry" />
        </mxCell>
        <mxCell id="Yhg_u6gzXOtYaM3I6TZ_-77" value="Elliot IV Dendron&lt;br&gt;&quot;Eastern Restorer&quot;&lt;br&gt;1225-1282" style="rounded=1;whiteSpace=wrap;html=1;fillColor=#EBEBEB;strokeColor=#666666;fontColor=#333333;" parent="1" vertex="1">
          <mxGeometry x="805" y="4260" width="120" height="60" as="geometry" />
        </mxCell>
        <mxCell id="Yhg_u6gzXOtYaM3I6TZ_-79" value="1276-1282" style="text;html=1;strokeColor=none;fillColor=none;align=center;verticalAlign=middle;whiteSpace=wrap;rounded=0;" parent="1" vertex="1">
          <mxGeometry x="865" y="4320" width="60" height="20" as="geometry" />
        </mxCell>
        <mxCell id="Yhg_u6gzXOtYaM3I6TZ_-91" style="edgeStyle=orthogonalEdgeStyle;rounded=0;orthogonalLoop=1;jettySize=auto;html=1;exitX=1;exitY=0.5;exitDx=0;exitDy=0;entryX=0.5;entryY=0;entryDx=0;entryDy=0;endArrow=none;endFill=0;" parent="1" source="Yhg_u6gzXOtYaM3I6TZ_-80" target="Yhg_u6gzXOtYaM3I6TZ_-89" edge="1">
          <mxGeometry relative="1" as="geometry">
            <Array as="points">
              <mxPoint x="940" y="4390" />
              <mxPoint x="940" y="4440" />
              <mxPoint x="860" y="4440" />
            </Array>
          </mxGeometry>
        </mxCell>
        <mxCell id="Yhg_u6gzXOtYaM3I6TZ_-94" style="edgeStyle=orthogonalEdgeStyle;rounded=0;orthogonalLoop=1;jettySize=auto;html=1;exitX=0;exitY=0.5;exitDx=0;exitDy=0;entryX=0.5;entryY=0;entryDx=0;entryDy=0;endArrow=none;endFill=0;" parent="1" source="Yhg_u6gzXOtYaM3I6TZ_-80" target="Yhg_u6gzXOtYaM3I6TZ_-93" edge="1">
          <mxGeometry relative="1" as="geometry" />
        </mxCell>
        <mxCell id="_9PgiYpsz7ZzYhsn5kWE-6" style="edgeStyle=orthogonalEdgeStyle;rounded=0;orthogonalLoop=1;jettySize=auto;html=1;entryX=0.5;entryY=0;entryDx=0;entryDy=0;endArrow=none;endFill=0;" parent="1" source="Yhg_u6gzXOtYaM3I6TZ_-80" target="_9PgiYpsz7ZzYhsn5kWE-5" edge="1">
          <mxGeometry relative="1" as="geometry">
            <Array as="points">
              <mxPoint x="940" y="4390" />
              <mxPoint x="940" y="4440" />
              <mxPoint x="1025" y="4440" />
            </Array>
          </mxGeometry>
        </mxCell>
        <mxCell id="Yhg_u6gzXOtYaM3I6TZ_-80" value="Ellis III/II Dendron&lt;br&gt;&quot;The Cheated&quot;&lt;br&gt;1248-1329" style="rounded=1;whiteSpace=wrap;html=1;fillColor=#d5e8d4;strokeColor=#82b366;" parent="1" vertex="1">
          <mxGeometry x="805" y="4360" width="120" height="60" as="geometry" />
        </mxCell>
        <mxCell id="Yhg_u6gzXOtYaM3I6TZ_-83" value="Oliver I Copnia&lt;br&gt;1255-1329" style="rounded=1;whiteSpace=wrap;html=1;fillColor=#dae8fc;strokeColor=#6c8ebf;" parent="1" vertex="1">
          <mxGeometry x="85" y="4360" width="120" height="60" as="geometry" />
        </mxCell>
        <mxCell id="Yhg_u6gzXOtYaM3I6TZ_-84" value="" style="endArrow=none;html=1;rounded=0;" parent="1" edge="1">
          <mxGeometry width="50" height="50" relative="1" as="geometry">
            <mxPoint x="575" y="4400" as="sourcePoint" />
            <mxPoint x="595" y="4380" as="targetPoint" />
          </mxGeometry>
        </mxCell>
        <mxCell id="Yhg_u6gzXOtYaM3I6TZ_-87" value="" style="edgeStyle=orthogonalEdgeStyle;rounded=0;orthogonalLoop=1;jettySize=auto;html=1;endArrow=none;endFill=0;" parent="1" source="Yhg_u6gzXOtYaM3I6TZ_-86" target="Yhg_u6gzXOtYaM3I6TZ_-80" edge="1">
          <mxGeometry relative="1" as="geometry" />
        </mxCell>
        <mxCell id="Yhg_u6gzXOtYaM3I6TZ_-86" value="Queen Consort&lt;br&gt;Lilianne Hydrex&lt;br&gt;1257-1341" style="rounded=1;whiteSpace=wrap;html=1;" parent="1" vertex="1">
          <mxGeometry x="965" y="4360" width="120" height="60" as="geometry" />
        </mxCell>
        <mxCell id="Yhg_u6gzXOtYaM3I6TZ_-97" style="edgeStyle=orthogonalEdgeStyle;rounded=0;orthogonalLoop=1;jettySize=auto;html=1;exitX=0.5;exitY=1;exitDx=0;exitDy=0;entryX=0.5;entryY=0;entryDx=0;entryDy=0;endArrow=none;endFill=0;" parent="1" source="Yhg_u6gzXOtYaM3I6TZ_-89" target="Yhg_u6gzXOtYaM3I6TZ_-96" edge="1">
          <mxGeometry relative="1" as="geometry" />
        </mxCell>
        <mxCell id="Yhg_u6gzXOtYaM3I6TZ_-89" value="Junex I Dendron&lt;br&gt;&quot;The Lame&quot;&lt;br&gt;1279-1342" style="rounded=1;whiteSpace=wrap;html=1;fillColor=#EBEBEB;strokeColor=#666666;fontColor=#333333;" parent="1" vertex="1">
          <mxGeometry x="800" y="4460" width="120" height="60" as="geometry" />
        </mxCell>
        <mxCell id="Yhg_u6gzXOtYaM3I6TZ_-90" value="1283" style="text;html=1;strokeColor=none;fillColor=none;align=center;verticalAlign=middle;whiteSpace=wrap;rounded=0;" parent="1" vertex="1">
          <mxGeometry x="560" y="4350" width="60" height="30" as="geometry" />
        </mxCell>
        <mxCell id="Yhg_u6gzXOtYaM3I6TZ_-92" value="Crown Prince&lt;br&gt;Elliot Dendron/Magdron&lt;br&gt;1275-1275" style="rounded=1;whiteSpace=wrap;html=1;" parent="1" vertex="1">
          <mxGeometry x="445" y="4460" width="120" height="60" as="geometry" />
        </mxCell>
        <mxCell id="Yhg_u6gzXOtYaM3I6TZ_-93" value="Crown Prince&lt;br&gt;Duncan Dendron/Magdron&lt;br&gt;1275-1277" style="rounded=1;whiteSpace=wrap;html=1;" parent="1" vertex="1">
          <mxGeometry x="605" y="4460" width="120" height="60" as="geometry" />
        </mxCell>
        <mxCell id="Yhg_u6gzXOtYaM3I6TZ_-100" style="edgeStyle=orthogonalEdgeStyle;rounded=0;orthogonalLoop=1;jettySize=auto;html=1;exitX=0.5;exitY=1;exitDx=0;exitDy=0;entryX=0.5;entryY=0;entryDx=0;entryDy=0;endArrow=none;endFill=0;" parent="1" source="Yhg_u6gzXOtYaM3I6TZ_-96" target="Yhg_u6gzXOtYaM3I6TZ_-99" edge="1">
          <mxGeometry relative="1" as="geometry" />
        </mxCell>
        <mxCell id="Yhg_u6gzXOtYaM3I6TZ_-96" value="Ellis IV Dendron&lt;br&gt;&quot;Spendthrift&quot;&lt;br&gt;1303-1370" style="rounded=1;whiteSpace=wrap;html=1;fillColor=#EBEBEB;strokeColor=#666666;fontColor=#333333;" parent="1" vertex="1">
          <mxGeometry x="800" y="4560" width="120" height="60" as="geometry" />
        </mxCell>
        <mxCell id="_9PgiYpsz7ZzYhsn5kWE-3" style="edgeStyle=orthogonalEdgeStyle;rounded=0;orthogonalLoop=1;jettySize=auto;html=1;entryX=0.5;entryY=0;entryDx=0;entryDy=0;endArrow=none;endFill=0;" parent="1" source="Yhg_u6gzXOtYaM3I6TZ_-99" target="_9PgiYpsz7ZzYhsn5kWE-1" edge="1">
          <mxGeometry relative="1" as="geometry" />
        </mxCell>
        <mxCell id="Yhg_u6gzXOtYaM3I6TZ_-99" value="Elliot V Dendron&lt;br&gt;&quot;The Useless&quot;&lt;br&gt;1331-1378" style="rounded=1;whiteSpace=wrap;html=1;fillColor=#EBEBEB;strokeColor=#666666;fontColor=#333333;" parent="1" vertex="1">
          <mxGeometry x="800" y="4660" width="120" height="60" as="geometry" />
        </mxCell>
        <mxCell id="Yhg_u6gzXOtYaM3I6TZ_-104" value="" style="edgeStyle=orthogonalEdgeStyle;rounded=0;orthogonalLoop=1;jettySize=auto;html=1;endArrow=none;endFill=0;" parent="1" source="Yhg_u6gzXOtYaM3I6TZ_-101" target="Yhg_u6gzXOtYaM3I6TZ_-103" edge="1">
          <mxGeometry relative="1" as="geometry" />
        </mxCell>
        <mxCell id="Yhg_u6gzXOtYaM3I6TZ_-107" style="edgeStyle=orthogonalEdgeStyle;rounded=0;orthogonalLoop=1;jettySize=auto;html=1;exitX=0;exitY=0.5;exitDx=0;exitDy=0;entryX=0.5;entryY=0;entryDx=0;entryDy=0;endArrow=none;endFill=0;" parent="1" source="Yhg_u6gzXOtYaM3I6TZ_-101" target="Yhg_u6gzXOtYaM3I6TZ_-105" edge="1">
          <mxGeometry relative="1" as="geometry" />
        </mxCell>
        <mxCell id="Yhg_u6gzXOtYaM3I6TZ_-101" value="Lewis II Magnia&lt;br&gt;&quot;The Charitable&quot;&lt;br&gt;1283-1342" style="rounded=1;whiteSpace=wrap;html=1;fillColor=#dae8fc;strokeColor=#6c8ebf;" parent="1" vertex="1">
          <mxGeometry x="165" y="4460" width="120" height="60" as="geometry" />
        </mxCell>
        <mxCell id="Yhg_u6gzXOtYaM3I6TZ_-103" value="Elaine II Solumn&lt;br&gt;1283-1340" style="rounded=1;whiteSpace=wrap;html=1;fillColor=#dae8fc;strokeColor=#6c8ebf;" parent="1" vertex="1">
          <mxGeometry x="10" y="4460" width="120" height="60" as="geometry" />
        </mxCell>
        <mxCell id="Yhg_u6gzXOtYaM3I6TZ_-110" style="edgeStyle=orthogonalEdgeStyle;rounded=0;orthogonalLoop=1;jettySize=auto;html=1;exitX=1;exitY=0.5;exitDx=0;exitDy=0;entryX=0.5;entryY=0;entryDx=0;entryDy=0;endArrow=none;endFill=0;" parent="1" source="Yhg_u6gzXOtYaM3I6TZ_-105" target="Yhg_u6gzXOtYaM3I6TZ_-109" edge="1">
          <mxGeometry relative="1" as="geometry" />
        </mxCell>
        <mxCell id="Yhg_u6gzXOtYaM3I6TZ_-105" value="Laurence II Solnia&lt;br&gt;&quot;The Reckless&quot;&lt;br&gt;1301-1365" style="rounded=1;whiteSpace=wrap;html=1;fillColor=#dae8fc;strokeColor=#6c8ebf;" parent="1" vertex="1">
          <mxGeometry x="85" y="4560" width="120" height="60" as="geometry" />
        </mxCell>
        <mxCell id="Yhg_u6gzXOtYaM3I6TZ_-108" value="" style="edgeStyle=orthogonalEdgeStyle;rounded=0;orthogonalLoop=1;jettySize=auto;html=1;endArrow=none;endFill=0;" parent="1" source="Yhg_u6gzXOtYaM3I6TZ_-106" target="Yhg_u6gzXOtYaM3I6TZ_-105" edge="1">
          <mxGeometry relative="1" as="geometry" />
        </mxCell>
        <mxCell id="Yhg_u6gzXOtYaM3I6TZ_-106" value="Lydia I Gasris&lt;br&gt;1306-1354" style="rounded=1;whiteSpace=wrap;html=1;fillColor=#dae8fc;strokeColor=#6c8ebf;" parent="1" vertex="1">
          <mxGeometry x="245" y="4560" width="120" height="60" as="geometry" />
        </mxCell>
        <mxCell id="Yhg_u6gzXOtYaM3I6TZ_-109" value="Hugo II Gasnia&lt;br&gt;&quot;The Lesser&quot;&lt;br&gt;1328-1382" style="rounded=1;whiteSpace=wrap;html=1;fillColor=#dae8fc;strokeColor=#6c8ebf;" parent="1" vertex="1">
          <mxGeometry x="165" y="4660" width="120" height="60" as="geometry" />
        </mxCell>
        <mxCell id="Yhg_u6gzXOtYaM3I6TZ_-112" value="" style="edgeStyle=orthogonalEdgeStyle;rounded=0;orthogonalLoop=1;jettySize=auto;html=1;endArrow=none;endFill=0;" parent="1" source="Yhg_u6gzXOtYaM3I6TZ_-111" target="Yhg_u6gzXOtYaM3I6TZ_-109" edge="1">
          <mxGeometry relative="1" as="geometry" />
        </mxCell>
        <mxCell id="Yhg_u6gzXOtYaM3I6TZ_-111" value="Olivia II Palafor&lt;br&gt;1320-1379" style="rounded=1;whiteSpace=wrap;html=1;fillColor=#dae8fc;strokeColor=#6c8ebf;" parent="1" vertex="1">
          <mxGeometry x="5" y="4660" width="120" height="60" as="geometry" />
        </mxCell>
        <mxCell id="Yhg_u6gzXOtYaM3I6TZ_-113" value="" style="endArrow=none;dashed=1;html=1;dashPattern=1 3;strokeWidth=2;rounded=0;entryX=0.5;entryY=1;entryDx=0;entryDy=0;" parent="1" target="Yhg_u6gzXOtYaM3I6TZ_-48" edge="1">
          <mxGeometry width="50" height="50" relative="1" as="geometry">
            <mxPoint x="625" y="4060" as="sourcePoint" />
            <mxPoint x="555" y="4230" as="targetPoint" />
          </mxGeometry>
        </mxCell>
        <mxCell id="TFvRyGkdYgD6_qLrY0AO-1" value="Jure Uxoris: 1066-1076" style="text;html=1;strokeColor=none;fillColor=none;align=center;verticalAlign=middle;whiteSpace=wrap;rounded=0;" parent="1" vertex="1">
          <mxGeometry x="640" y="3520" width="130" height="20" as="geometry" />
        </mxCell>
        <mxCell id="TFvRyGkdYgD6_qLrY0AO-3" value="Alexandra Pience&lt;br&gt;1088-1135" style="rounded=1;whiteSpace=wrap;html=1;" parent="1" vertex="1">
          <mxGeometry x="725" y="3660" width="120" height="60" as="geometry" />
        </mxCell>
        <mxCell id="TFvRyGkdYgD6_qLrY0AO-4" value="" style="endArrow=none;dashed=1;html=1;dashPattern=1 3;strokeWidth=2;rounded=0;exitX=0.5;exitY=0;exitDx=0;exitDy=0;entryX=1;entryY=0.5;entryDx=0;entryDy=0;edgeStyle=orthogonalEdgeStyle;" parent="1" source="Yhg_u6gzXOtYaM3I6TZ_-33" target="Yhg_u6gzXOtYaM3I6TZ_-11" edge="1">
          <mxGeometry width="50" height="50" relative="1" as="geometry">
            <mxPoint x="725" y="3760" as="sourcePoint" />
            <mxPoint x="775" y="3710" as="targetPoint" />
            <Array as="points">
              <mxPoint x="785" y="3740" />
              <mxPoint x="705" y="3740" />
              <mxPoint x="705" y="3690" />
            </Array>
          </mxGeometry>
        </mxCell>
        <mxCell id="TFvRyGkdYgD6_qLrY0AO-5" value="" style="endArrow=none;dashed=1;html=1;dashPattern=1 3;strokeWidth=2;rounded=0;entryX=0;entryY=0.5;entryDx=0;entryDy=0;exitX=0.5;exitY=0;exitDx=0;exitDy=0;edgeStyle=orthogonalEdgeStyle;" parent="1" source="Yhg_u6gzXOtYaM3I6TZ_-33" target="TFvRyGkdYgD6_qLrY0AO-3" edge="1">
          <mxGeometry width="50" height="50" relative="1" as="geometry">
            <mxPoint x="725" y="3760" as="sourcePoint" />
            <mxPoint x="775" y="3710" as="targetPoint" />
            <Array as="points">
              <mxPoint x="785" y="3740" />
              <mxPoint x="705" y="3740" />
              <mxPoint x="705" y="3690" />
            </Array>
          </mxGeometry>
        </mxCell>
        <mxCell id="TFvRyGkdYgD6_qLrY0AO-8" value="" style="edgeStyle=orthogonalEdgeStyle;rounded=0;orthogonalLoop=1;jettySize=auto;html=1;exitX=0;exitY=0.5;exitDx=0;exitDy=0;entryX=0.5;entryY=0;entryDx=0;entryDy=0;endArrow=none;endFill=0;" parent="1" source="Yhg_u6gzXOtYaM3I6TZ_-11" target="Yhg_u6gzXOtYaM3I6TZ_-19" edge="1">
          <mxGeometry relative="1" as="geometry">
            <Array as="points">
              <mxPoint x="515" y="3690" />
              <mxPoint x="515" y="3740" />
              <mxPoint x="305" y="3740" />
            </Array>
            <mxPoint x="565" y="3690" as="sourcePoint" />
            <mxPoint x="305" y="3760" as="targetPoint" />
          </mxGeometry>
        </mxCell>
        <mxCell id="TFvRyGkdYgD6_qLrY0AO-7" value="Jure Uxoris: 1105-1143" style="text;html=1;strokeColor=none;fillColor=none;align=center;verticalAlign=middle;whiteSpace=wrap;rounded=0;" parent="1" vertex="1">
          <mxGeometry x="330" y="3720" width="130" height="20" as="geometry" />
        </mxCell>
        <mxCell id="TFvRyGkdYgD6_qLrY0AO-11" style="edgeStyle=orthogonalEdgeStyle;rounded=0;orthogonalLoop=1;jettySize=auto;html=1;exitX=1;exitY=0.5;exitDx=0;exitDy=0;entryX=0.5;entryY=0;entryDx=0;entryDy=0;endArrow=none;endFill=0;" parent="1" source="TFvRyGkdYgD6_qLrY0AO-9" target="TFvRyGkdYgD6_qLrY0AO-10" edge="1">
          <mxGeometry relative="1" as="geometry">
            <Array as="points">
              <mxPoint x="265" y="3690" />
              <mxPoint x="265" y="3740" />
              <mxPoint x="145" y="3740" />
            </Array>
          </mxGeometry>
        </mxCell>
        <mxCell id="TFvRyGkdYgD6_qLrY0AO-9" value="George Reteker&lt;br&gt;1073-1117" style="rounded=1;whiteSpace=wrap;html=1;" parent="1" vertex="1">
          <mxGeometry x="85" y="3660" width="120" height="60" as="geometry" />
        </mxCell>
        <mxCell id="TFvRyGkdYgD6_qLrY0AO-14" style="edgeStyle=orthogonalEdgeStyle;rounded=0;orthogonalLoop=1;jettySize=auto;html=1;exitX=0.5;exitY=1;exitDx=0;exitDy=0;entryX=0.5;entryY=0;entryDx=0;entryDy=0;endArrow=none;endFill=0;" parent="1" source="TFvRyGkdYgD6_qLrY0AO-10" target="TFvRyGkdYgD6_qLrY0AO-13" edge="1">
          <mxGeometry relative="1" as="geometry" />
        </mxCell>
        <mxCell id="TFvRyGkdYgD6_qLrY0AO-10" value="Claimant&lt;br&gt;Laurence Reteker&lt;br&gt;1113-1173" style="rounded=1;whiteSpace=wrap;html=1;" parent="1" vertex="1">
          <mxGeometry x="85" y="3760" width="120" height="60" as="geometry" />
        </mxCell>
        <mxCell id="TFvRyGkdYgD6_qLrY0AO-13" value="Hugo Reteker&lt;br&gt;1135-1201" style="rounded=1;whiteSpace=wrap;html=1;" parent="1" vertex="1">
          <mxGeometry x="85" y="3860" width="120" height="60" as="geometry" />
        </mxCell>
        <mxCell id="TFvRyGkdYgD6_qLrY0AO-15" value="1282-1336" style="text;html=1;strokeColor=none;fillColor=none;align=center;verticalAlign=middle;whiteSpace=wrap;rounded=0;fontSize=11;fontFamily=Helvetica;fontColor=default;" parent="1" vertex="1">
          <mxGeometry x="305" y="4420" width="60" height="20" as="geometry" />
        </mxCell>
        <mxCell id="HDEjZj1JxsG3NcDmudN2-1" value="1336-1342" style="text;html=1;strokeColor=none;fillColor=none;align=center;verticalAlign=middle;whiteSpace=wrap;rounded=0;" parent="1" vertex="1">
          <mxGeometry x="225" y="4520" width="60" height="20" as="geometry" />
        </mxCell>
        <mxCell id="HDEjZj1JxsG3NcDmudN2-2" value="1342-1365" style="text;html=1;strokeColor=none;fillColor=none;align=center;verticalAlign=middle;whiteSpace=wrap;rounded=0;" parent="1" vertex="1">
          <mxGeometry x="145" y="4620" width="60" height="20" as="geometry" />
        </mxCell>
        <mxCell id="HDEjZj1JxsG3NcDmudN2-3" value="1365-1382" style="text;html=1;strokeColor=none;fillColor=none;align=center;verticalAlign=middle;whiteSpace=wrap;rounded=0;" parent="1" vertex="1">
          <mxGeometry x="225" y="4720" width="60" height="20" as="geometry" />
        </mxCell>
        <mxCell id="HDEjZj1JxsG3NcDmudN2-4" value="Jure Uxoris: 1378-1379" style="text;html=1;strokeColor=none;fillColor=none;align=center;verticalAlign=middle;whiteSpace=wrap;rounded=0;" parent="1" vertex="1">
          <mxGeometry y="4720" width="130" height="20" as="geometry" />
        </mxCell>
        <mxCell id="HDEjZj1JxsG3NcDmudN2-5" value="Jure Uxoris: 1342-1354" style="text;html=1;strokeColor=none;fillColor=none;align=center;verticalAlign=middle;whiteSpace=wrap;rounded=0;" parent="1" vertex="1">
          <mxGeometry x="240" y="4620" width="130" height="20" as="geometry" />
        </mxCell>
        <mxCell id="HDEjZj1JxsG3NcDmudN2-6" value="Jure Uxoris: 1336-1340" style="text;html=1;strokeColor=none;fillColor=none;align=center;verticalAlign=middle;whiteSpace=wrap;rounded=0;" parent="1" vertex="1">
          <mxGeometry x="5" y="4520" width="130" height="20" as="geometry" />
        </mxCell>
        <mxCell id="HDEjZj1JxsG3NcDmudN2-8" value="Jure Uxoris: 1293-1329" style="text;html=1;strokeColor=none;fillColor=none;align=center;verticalAlign=middle;whiteSpace=wrap;rounded=0;" parent="1" vertex="1">
          <mxGeometry x="80" y="4420" width="130" height="20" as="geometry" />
        </mxCell>
        <mxCell id="HDEjZj1JxsG3NcDmudN2-9" value="1282-1329" style="text;html=1;strokeColor=none;fillColor=none;align=center;verticalAlign=middle;whiteSpace=wrap;rounded=0;" parent="1" vertex="1">
          <mxGeometry x="865" y="4420" width="60" height="20" as="geometry" />
        </mxCell>
        <mxCell id="HDEjZj1JxsG3NcDmudN2-10" value="1329-1342" style="text;html=1;strokeColor=none;fillColor=none;align=center;verticalAlign=middle;whiteSpace=wrap;rounded=0;" parent="1" vertex="1">
          <mxGeometry x="860" y="4520" width="60" height="20" as="geometry" />
        </mxCell>
        <mxCell id="HDEjZj1JxsG3NcDmudN2-11" value="1342-1370" style="text;html=1;strokeColor=none;fillColor=none;align=center;verticalAlign=middle;whiteSpace=wrap;rounded=0;" parent="1" vertex="1">
          <mxGeometry x="860" y="4620" width="60" height="20" as="geometry" />
        </mxCell>
        <mxCell id="HDEjZj1JxsG3NcDmudN2-12" value="1370-1378" style="text;html=1;strokeColor=none;fillColor=none;align=center;verticalAlign=middle;whiteSpace=wrap;rounded=0;" parent="1" vertex="1">
          <mxGeometry x="860" y="4720" width="60" height="20" as="geometry" />
        </mxCell>
        <mxCell id="_9PgiYpsz7ZzYhsn5kWE-1" value="Ellis V Dendron&lt;br&gt;&quot;The Last Dendron&quot;&lt;br&gt;1370-1382" style="rounded=1;whiteSpace=wrap;html=1;fillColor=#EBEBEB;strokeColor=#666666;fontColor=#333333;" parent="1" vertex="1">
          <mxGeometry x="800" y="4760" width="120" height="60" as="geometry" />
        </mxCell>
        <mxCell id="_9PgiYpsz7ZzYhsn5kWE-4" value="1378-1382" style="text;html=1;strokeColor=none;fillColor=none;align=center;verticalAlign=middle;whiteSpace=wrap;rounded=0;" parent="1" vertex="1">
          <mxGeometry x="860" y="4820" width="60" height="20" as="geometry" />
        </mxCell>
        <mxCell id="VQH2aYRF6oMFjdswamCu-2" style="edgeStyle=orthogonalEdgeStyle;rounded=0;orthogonalLoop=1;jettySize=auto;html=1;entryX=0.5;entryY=0;entryDx=0;entryDy=0;" parent="1" source="_9PgiYpsz7ZzYhsn5kWE-5" target="VQH2aYRF6oMFjdswamCu-1" edge="1">
          <mxGeometry relative="1" as="geometry">
            <Array as="points">
              <mxPoint x="1025" y="4840" />
              <mxPoint x="585" y="4840" />
            </Array>
          </mxGeometry>
        </mxCell>
        <mxCell id="_9PgiYpsz7ZzYhsn5kWE-5" value="Princess&lt;br&gt;Caroline Dendron&lt;br&gt;1285-1361" style="rounded=1;whiteSpace=wrap;html=1;" parent="1" vertex="1">
          <mxGeometry x="965" y="4460" width="120" height="60" as="geometry" />
        </mxCell>
        <mxCell id="VQH2aYRF6oMFjdswamCu-1" value="Pavo IV ?&lt;br&gt;&quot;The Dual Conqueror&quot;&lt;br&gt;1382-?" style="rounded=1;whiteSpace=wrap;html=1;fillColor=#d5e8d4;strokeColor=#82b366;" parent="1" vertex="1">
          <mxGeometry x="525" y="4860" width="120" height="60" as="geometry" />
        </mxCell>
      </root>
    </mxGraphModel>
  </diagram>
</mxfile>
